G04*
G04 #@! TF.GenerationSoftware,Altium Limited,Altium Designer,24.6.1 (21)*
G04*
G04 Layer_Color=32896*
%FSLAX44Y44*%
%MOMM*%
G71*
G04*
G04 #@! TF.SameCoordinates,52A8A81B-FF2B-4EC6-89A9-BAFCCA1C575D*
G04*
G04*
G04 #@! TF.FilePolarity,Positive*
G04*
G01*
G75*
%ADD11C,0.1524*%
D11*
X107570Y9817D02*
Y5924D01*
Y7870D01*
X113410D01*
Y3977D02*
X107570D01*
Y1057D01*
X108543Y83D01*
X110490D01*
X111463Y1057D01*
Y3977D01*
X113410Y-4783D02*
X107570D01*
X110490Y-1863D01*
Y-5757D01*
X108543Y-7703D02*
X107570Y-8677D01*
Y-10624D01*
X108543Y-11597D01*
X112437D01*
X113410Y-10624D01*
Y-8677D01*
X112437Y-7703D01*
X108543D01*
Y-13544D02*
X107570Y-14517D01*
Y-16464D01*
X108543Y-17437D01*
X109517D01*
X110490Y-16464D01*
Y-15490D01*
Y-16464D01*
X111463Y-17437D01*
X112437D01*
X113410Y-16464D01*
Y-14517D01*
X112437Y-13544D01*
X82170Y11087D02*
Y7193D01*
Y9140D01*
X88010D01*
Y5247D02*
X82170D01*
Y2327D01*
X83143Y1353D01*
X85090D01*
X86063Y2327D01*
Y5247D01*
X88010Y-3513D02*
X82170D01*
X85090Y-593D01*
Y-4487D01*
X83143Y-6433D02*
X82170Y-7407D01*
Y-9354D01*
X83143Y-10327D01*
X87037D01*
X88010Y-9354D01*
Y-7407D01*
X87037Y-6433D01*
X83143D01*
X88010Y-15194D02*
X82170D01*
X85090Y-12274D01*
Y-16167D01*
X-103213Y138810D02*
X-107107D01*
X-105160D01*
Y132970D01*
X-109053D02*
Y138810D01*
X-111973D01*
X-112947Y137837D01*
Y135890D01*
X-111973Y134917D01*
X-109053D01*
X-117813Y132970D02*
Y138810D01*
X-114893Y135890D01*
X-118787D01*
X-120733Y137837D02*
X-121707Y138810D01*
X-123653D01*
X-124627Y137837D01*
Y133943D01*
X-123653Y132970D01*
X-121707D01*
X-120733Y133943D01*
Y137837D01*
X-130467Y132970D02*
X-126573D01*
X-130467Y136863D01*
Y137837D01*
X-129494Y138810D01*
X-127547D01*
X-126573Y137837D01*
X275247Y52450D02*
X271353D01*
X273300D01*
Y46610D01*
X269407D02*
Y52450D01*
X266487D01*
X265513Y51477D01*
Y49530D01*
X266487Y48557D01*
X269407D01*
X263567Y51477D02*
X262593Y52450D01*
X260647D01*
X259673Y51477D01*
Y50503D01*
X260647Y49530D01*
X261620D01*
X260647D01*
X259673Y48557D01*
Y47583D01*
X260647Y46610D01*
X262593D01*
X263567Y47583D01*
X257727Y51477D02*
X256753Y52450D01*
X254806D01*
X253833Y51477D01*
Y47583D01*
X254806Y46610D01*
X256753D01*
X257727Y47583D01*
Y51477D01*
X247993Y46610D02*
X251887D01*
X247993Y50503D01*
Y51477D01*
X248966Y52450D01*
X250913D01*
X251887Y51477D01*
X-251506Y54990D02*
X-255400D01*
X-253453D01*
Y49150D01*
X-257346D02*
Y54990D01*
X-260267D01*
X-261240Y54017D01*
Y52070D01*
X-260267Y51097D01*
X-257346D01*
X-263187Y54017D02*
X-264160Y54990D01*
X-266107D01*
X-267080Y54017D01*
Y53043D01*
X-266107Y52070D01*
X-265133D01*
X-266107D01*
X-267080Y51097D01*
Y50123D01*
X-266107Y49150D01*
X-264160D01*
X-263187Y50123D01*
X-269027Y54017D02*
X-270000Y54990D01*
X-271947D01*
X-272920Y54017D01*
Y50123D01*
X-271947Y49150D01*
X-270000D01*
X-269027Y50123D01*
Y54017D01*
X-274867Y49150D02*
X-276814D01*
X-275840D01*
Y54990D01*
X-274867Y54017D01*
X177457Y-55500D02*
X173563D01*
X175510D01*
Y-61340D01*
X171617D02*
Y-55500D01*
X168697D01*
X167723Y-56473D01*
Y-58420D01*
X168697Y-59393D01*
X171617D01*
X161883Y-61340D02*
X165777D01*
X161883Y-57447D01*
Y-56473D01*
X162857Y-55500D01*
X164803D01*
X165777Y-56473D01*
X159937D02*
X158963Y-55500D01*
X157016D01*
X156043Y-56473D01*
Y-60367D01*
X157016Y-61340D01*
X158963D01*
X159937Y-60367D01*
Y-56473D01*
X150203Y-61340D02*
X154096D01*
X150203Y-57447D01*
Y-56473D01*
X151176Y-55500D01*
X153123D01*
X154096Y-56473D01*
X-193721Y-62485D02*
X-197615D01*
X-195668D01*
Y-68325D01*
X-199562D02*
Y-62485D01*
X-202482D01*
X-203455Y-63458D01*
Y-65405D01*
X-202482Y-66378D01*
X-199562D01*
X-209295Y-68325D02*
X-205402D01*
X-209295Y-64432D01*
Y-63458D01*
X-208322Y-62485D01*
X-206375D01*
X-205402Y-63458D01*
X-211242D02*
X-212215Y-62485D01*
X-214162D01*
X-215135Y-63458D01*
Y-67352D01*
X-214162Y-68325D01*
X-212215D01*
X-211242Y-67352D01*
Y-63458D01*
X-217082Y-68325D02*
X-219029D01*
X-218055D01*
Y-62485D01*
X-217082Y-63458D01*
X-35180Y-36695D02*
Y-32801D01*
Y-34748D01*
X-41020D01*
Y-30854D02*
X-35180D01*
Y-27934D01*
X-36153Y-26961D01*
X-38100D01*
X-39073Y-27934D01*
Y-30854D01*
X-41020Y-25014D02*
Y-23068D01*
Y-24041D01*
X-35180D01*
X-36153Y-25014D01*
Y-20148D02*
X-35180Y-19174D01*
Y-17227D01*
X-36153Y-16254D01*
X-40047D01*
X-41020Y-17227D01*
Y-19174D01*
X-40047Y-20148D01*
X-36153D01*
X-35180Y-10414D02*
Y-14307D01*
X-38100D01*
X-37127Y-12361D01*
Y-11387D01*
X-38100Y-10414D01*
X-40047D01*
X-41020Y-11387D01*
Y-13334D01*
X-40047Y-14307D01*
X-35180Y40580D02*
Y44473D01*
Y42526D01*
X-41020D01*
Y46420D02*
X-35180D01*
Y49340D01*
X-36153Y50313D01*
X-38100D01*
X-39073Y49340D01*
Y46420D01*
X-41020Y52260D02*
Y54207D01*
Y53233D01*
X-35180D01*
X-36153Y52260D01*
Y57127D02*
X-35180Y58100D01*
Y60047D01*
X-36153Y61020D01*
X-40047D01*
X-41020Y60047D01*
Y58100D01*
X-40047Y57127D01*
X-36153D01*
X-41020Y65887D02*
X-35180D01*
X-38100Y62967D01*
Y66860D01*
X-9780Y40894D02*
Y44787D01*
Y42841D01*
X-15620D01*
Y46734D02*
X-9780D01*
Y49654D01*
X-10753Y50627D01*
X-12700D01*
X-13673Y49654D01*
Y46734D01*
X-15620Y52574D02*
Y54521D01*
Y53548D01*
X-9780D01*
X-10753Y52574D01*
Y57441D02*
X-9780Y58414D01*
Y60361D01*
X-10753Y61334D01*
X-14647D01*
X-15620Y60361D01*
Y58414D01*
X-14647Y57441D01*
X-10753D01*
Y63281D02*
X-9780Y64254D01*
Y66201D01*
X-10753Y67175D01*
X-11727D01*
X-12700Y66201D01*
Y65228D01*
Y66201D01*
X-13673Y67175D01*
X-14647D01*
X-15620Y66201D01*
Y64254D01*
X-14647Y63281D01*
X15620Y40894D02*
Y44787D01*
Y42841D01*
X9780D01*
Y46734D02*
X15620D01*
Y49654D01*
X14647Y50627D01*
X12700D01*
X11727Y49654D01*
Y46734D01*
X9780Y52574D02*
Y54521D01*
Y53548D01*
X15620D01*
X14647Y52574D01*
Y57441D02*
X15620Y58414D01*
Y60361D01*
X14647Y61334D01*
X10753D01*
X9780Y60361D01*
Y58414D01*
X10753Y57441D01*
X14647D01*
X9780Y67175D02*
Y63281D01*
X13673Y67175D01*
X14647D01*
X15620Y66201D01*
Y64254D01*
X14647Y63281D01*
X41020Y40894D02*
Y44787D01*
Y42841D01*
X35180D01*
Y46734D02*
X41020D01*
Y49654D01*
X40047Y50627D01*
X38100D01*
X37127Y49654D01*
Y46734D01*
X35180Y52574D02*
Y54521D01*
Y53548D01*
X41020D01*
X40047Y52574D01*
Y57441D02*
X41020Y58414D01*
Y60361D01*
X40047Y61334D01*
X36153D01*
X35180Y60361D01*
Y58414D01*
X36153Y57441D01*
X40047D01*
X35180Y63281D02*
Y65228D01*
Y64254D01*
X41020D01*
X40047Y63281D01*
X214797Y-290450D02*
X210903D01*
X212850D01*
Y-296290D01*
X208957D02*
Y-290450D01*
X206037D01*
X205063Y-291423D01*
Y-293370D01*
X206037Y-294343D01*
X208957D01*
X199223Y-290450D02*
X201170Y-291423D01*
X203117Y-293370D01*
Y-295317D01*
X202143Y-296290D01*
X200196D01*
X199223Y-295317D01*
Y-294343D01*
X200196Y-293370D01*
X203117D01*
X-98680Y-400638D02*
Y-396744D01*
Y-398691D01*
X-104520D01*
Y-394798D02*
X-98680D01*
Y-391878D01*
X-99653Y-390904D01*
X-101600D01*
X-102573Y-391878D01*
Y-394798D01*
X-98680Y-385064D02*
Y-388957D01*
X-101600D01*
X-100627Y-387011D01*
Y-386037D01*
X-101600Y-385064D01*
X-103547D01*
X-104520Y-386037D01*
Y-387984D01*
X-103547Y-388957D01*
X189397Y-290450D02*
X185503D01*
X187450D01*
Y-296290D01*
X183557D02*
Y-290450D01*
X180637D01*
X179663Y-291423D01*
Y-293370D01*
X180637Y-294343D01*
X183557D01*
X174797Y-296290D02*
Y-290450D01*
X177717Y-293370D01*
X173823D01*
X63667Y-333630D02*
X59773D01*
X61720D01*
Y-339470D01*
X57827D02*
Y-333630D01*
X54907D01*
X53933Y-334603D01*
Y-336550D01*
X54907Y-337523D01*
X57827D01*
X51987Y-334603D02*
X51013Y-333630D01*
X49067D01*
X48093Y-334603D01*
Y-335577D01*
X49067Y-336550D01*
X50040D01*
X49067D01*
X48093Y-337523D01*
Y-338497D01*
X49067Y-339470D01*
X51013D01*
X51987Y-338497D01*
X-228433Y-286640D02*
X-232327D01*
X-230380D01*
Y-292480D01*
X-234273D02*
Y-286640D01*
X-237193D01*
X-238167Y-287613D01*
Y-289560D01*
X-237193Y-290533D01*
X-234273D01*
X-244007Y-292480D02*
X-240113D01*
X-244007Y-288587D01*
Y-287613D01*
X-243034Y-286640D01*
X-241087D01*
X-240113Y-287613D01*
X-98680Y-375831D02*
Y-371938D01*
Y-373884D01*
X-104520D01*
Y-369991D02*
X-98680D01*
Y-367071D01*
X-99653Y-366097D01*
X-101600D01*
X-102573Y-367071D01*
Y-369991D01*
X-104520Y-364151D02*
Y-362204D01*
Y-363177D01*
X-98680D01*
X-99653Y-364151D01*
M02*
