M48
;Layer_Color=9474304
;FILE_FORMAT=4:4
METRIC,LZ
;TYPE=PLATED
T01F00S00C0.3048
T02F00S00C0.5588
T03F00S00C0.6350
T05F00S00C0.7620
T06F00S00C0.8382
T08F00S00C3.5000
%
T01
X0013589Y-0034417
X00138968Y-00231733
X0019558Y-0024765
X0009398Y-0027559
X0004699Y-0028575
X-0002794Y-0028448
X-0004572Y-0029718
X-0012446Y-0029464
Y-0026797
Y-0022733
X-0006985Y-0022098
X-0029337Y-0002286
X-0033528Y0001905
X-0033909Y0003683
X-0033274Y0014351
X-0028829Y0015113
X-0026797Y0014097
X-0024003Y0008382
X-002286Y0006604
X-0023876Y0005334
X-0020955Y0004445
X-00172729Y00041307
X-00188347Y0008382
X-0007366Y0009271
X-0004953Y0008128
X-00023891Y0006477
X0003683Y0006604
X0004572Y001143
X0004064Y0013081
Y0014859
X0003683Y0016383
X0001778Y0010541
X-0005715Y0012446
X-0005334Y0014605
X-0008001Y00157574
X-0009017Y00173355
X-0002286Y-0002315
X0000381Y-0002286
X0001651Y-0005461
X0003302
X000381Y0000762
X00102362Y-001651
X0012446Y-002032
X-0019558Y-0018542
X-0020193Y-0010033
X-0017526
Y-0008509
X-0024003
X-0026797Y-000762
X-0024765Y-0003429
X-0025019Y000127
X-0015875Y-0003302
X001651Y-0002667
X0016383Y00028575
X0017526Y0006223
X0020447Y000508
X0023495Y0005461
X0025654Y0003302
Y-000254
X0032004Y-0003175
X0034036Y0003937
X0028194Y000889
X0033147Y0014351
X0018542Y0014478
X0019685Y0018415
X0014986Y0018161
X002667Y-0014224
X0021971Y0024511
X0014986Y0023495
Y0020193
X000762Y0020574
X0005842Y0022733
Y0024257
X0008509Y002413
X0004445Y0021336
X0002794Y0025654
X0001778Y0026416
X0001651Y0029464
X0000762Y0030607
X-0000127Y0031496
X-0000889Y0032512
X-0002667Y0033274
X-000381Y0034163
X-0004191Y002921
X-0001778Y0028321
X-0007112Y0026162
X-000889Y0025654
X-0007493Y0023876
X-0010541Y0022479
Y0021082
X-0010287Y0019431
X-001143Y0028575
X-0008128Y0030607
X-0006858Y0031496
X-0014097Y0034163
X-0019558Y0025019
X0008255Y0030988
X0012446Y0029464
T02
X-0018522Y-003048
X-0017272
T03
X0018161Y-0030861
X0020701
X0007493Y-0033655
X-0011557Y-003683
Y-003937
X-0023622Y-003048
X-0028829Y0005207
X-00230505Y-00065405
X-000381Y0000254
Y0002794
X-000127
X000127
X000381
X0008509Y0002286
X0011049
X-0009144Y0013589
X0028575Y0004953
X0018923Y-0005842
X000635Y0028956
X000381
T05
X0011176Y0017145
Y0018415
X0012446
Y0017145
Y0019685
Y0020955
Y0022225
Y0023495
Y0024765
X0011176
Y0023495
Y0022225
Y0020955
Y0019685
T06
X0005398Y-00381
X0007398
X0009398
T08
X-00296252Y-00203041
X00296252Y-00203041
X00296252Y00210455
X-00296252
M30
