G04*
G04 #@! TF.GenerationSoftware,Altium Limited,Altium Designer,24.6.1 (21)*
G04*
G04 Layer_Physical_Order=2*
G04 Layer_Color=36540*
%FSLAX44Y44*%
%MOMM*%
G71*
G04*
G04 #@! TF.SameCoordinates,AE62F21E-7CF3-41CB-9DFA-65B86074F311*
G04*
G04*
G04 #@! TF.FilePolarity,Positive*
G04*
G01*
G75*
%ADD61C,1.2700*%
%ADD69O,1.1500X1.7500*%
%ADD70C,1.1684*%
%ADD71C,1.0668*%
%ADD74C,3.5000*%
%ADD75C,0.6350*%
%ADD76O,1.1938X2.0066*%
%ADD77C,1.5240*%
G36*
X353916Y218462D02*
X353917Y-218462D01*
X235000Y-358618D01*
X132500D01*
Y-415000D01*
X-132500D01*
Y-358618D01*
X-235000D01*
X-353916Y-218462D01*
X-353917Y218462D01*
X-235000Y358618D01*
X235000Y358618D01*
X353916Y218462D01*
D02*
G37*
%LPC*%
G36*
X-36963Y347345D02*
X-39237D01*
X-41337Y346475D01*
X-42945Y344867D01*
X-43815Y342767D01*
Y340493D01*
X-42945Y338393D01*
X-41337Y336785D01*
X-39237Y335915D01*
X-36963D01*
X-34863Y336785D01*
X-33255Y338393D01*
X-32385Y340493D01*
Y342767D01*
X-33255Y344867D01*
X-34863Y346475D01*
X-36963Y347345D01*
D02*
G37*
G36*
X-139833D02*
X-142107D01*
X-144207Y346475D01*
X-145815Y344867D01*
X-146685Y342767D01*
Y340493D01*
X-145815Y338393D01*
X-144207Y336785D01*
X-142107Y335915D01*
X-139833D01*
X-137733Y336785D01*
X-136125Y338393D01*
X-135255Y340493D01*
Y342767D01*
X-136125Y344867D01*
X-137733Y346475D01*
X-139833Y347345D01*
D02*
G37*
G36*
X-25533Y338455D02*
X-27807D01*
X-29907Y337585D01*
X-31515Y335977D01*
X-32385Y333877D01*
Y331603D01*
X-31515Y329503D01*
X-29907Y327895D01*
X-27807Y327025D01*
X-25533D01*
X-23433Y327895D01*
X-21825Y329503D01*
X-20955Y331603D01*
Y333877D01*
X-21825Y335977D01*
X-23433Y337585D01*
X-25533Y338455D01*
D02*
G37*
G36*
X83820Y315540D02*
Y311150D01*
X88210D01*
X87395Y313117D01*
X85787Y314725D01*
X83820Y315540D01*
D02*
G37*
G36*
X81280D02*
X79313Y314725D01*
X77705Y313117D01*
X76890Y311150D01*
X81280D01*
Y315540D01*
D02*
G37*
G36*
X-67443Y320675D02*
X-69717D01*
X-71817Y319805D01*
X-73425Y318197D01*
X-74295Y316097D01*
Y313823D01*
X-73425Y311723D01*
X-71817Y310115D01*
X-69717Y309245D01*
X-67443D01*
X-65343Y310115D01*
X-63735Y311723D01*
X-62865Y313823D01*
Y316097D01*
X-63735Y318197D01*
X-65343Y319805D01*
X-67443Y320675D01*
D02*
G37*
G36*
X88210Y308610D02*
X83820D01*
Y304220D01*
X85787Y305035D01*
X87395Y306643D01*
X88210Y308610D01*
D02*
G37*
G36*
X81280D02*
X76890D01*
X77705Y306643D01*
X79313Y305035D01*
X81280Y304220D01*
Y308610D01*
D02*
G37*
G36*
X-7753Y330835D02*
X-10027D01*
X-12127Y329965D01*
X-13735Y328357D01*
X-14605Y326257D01*
Y323983D01*
X-13735Y321883D01*
X-12127Y320275D01*
X-10027Y319405D01*
X-8226D01*
X-7043Y318081D01*
X-6546Y317156D01*
X-6985Y316097D01*
Y313823D01*
X-6115Y311723D01*
X-4507Y310115D01*
X-2407Y309245D01*
X-133D01*
X28Y309312D01*
X1972Y307368D01*
X1905Y307207D01*
Y304933D01*
X2775Y302833D01*
X4383Y301225D01*
X6483Y300355D01*
X8757D01*
X10857Y301225D01*
X12465Y302833D01*
X13335Y304933D01*
Y307207D01*
X12465Y309307D01*
X10857Y310915D01*
X8757Y311785D01*
X6483D01*
X6322Y311718D01*
X4378Y313662D01*
X4445Y313823D01*
Y316097D01*
X3575Y318197D01*
X1967Y319805D01*
X-133Y320675D01*
X-1934D01*
X-3117Y321999D01*
X-3614Y322924D01*
X-3175Y323983D01*
Y326257D01*
X-4045Y328357D01*
X-5653Y329965D01*
X-7753Y330835D01*
D02*
G37*
G36*
X-80143Y311785D02*
X-82417D01*
X-84517Y310915D01*
X-86125Y309307D01*
X-86995Y307207D01*
Y304933D01*
X-86125Y302833D01*
X-84517Y301225D01*
X-82417Y300355D01*
X-80143D01*
X-78043Y301225D01*
X-76435Y302833D01*
X-75565Y304933D01*
Y307207D01*
X-76435Y309307D01*
X-78043Y310915D01*
X-80143Y311785D01*
D02*
G37*
G36*
X125597Y300355D02*
X123323D01*
X121223Y299485D01*
X119615Y297877D01*
X118745Y295777D01*
Y293503D01*
X119615Y291403D01*
X121223Y289795D01*
X123323Y288925D01*
X125597D01*
X127697Y289795D01*
X129305Y291403D01*
X130175Y293503D01*
Y295777D01*
X129305Y297877D01*
X127697Y299485D01*
X125597Y300355D01*
D02*
G37*
G36*
X17647D02*
X15373D01*
X13273Y299485D01*
X11665Y297877D01*
X10795Y295777D01*
Y293503D01*
X11665Y291403D01*
X13273Y289795D01*
X15373Y288925D01*
X17647D01*
X19747Y289795D01*
X21355Y291403D01*
X22225Y293503D01*
Y295777D01*
X21355Y297877D01*
X19747Y299485D01*
X17647Y300355D01*
D02*
G37*
G36*
X-40773Y297815D02*
X-43047D01*
X-45147Y296945D01*
X-46755Y295337D01*
X-47625Y293237D01*
Y290963D01*
X-46755Y288863D01*
X-45147Y287255D01*
X-43047Y286385D01*
X-40773D01*
X-38673Y287255D01*
X-37065Y288863D01*
X-36195Y290963D01*
Y293237D01*
X-37065Y295337D01*
X-38673Y296945D01*
X-40773Y297815D01*
D02*
G37*
G36*
X64670Y298450D02*
X62330D01*
X60069Y297844D01*
X58041Y296674D01*
X56386Y295019D01*
X55216Y292991D01*
X54610Y290730D01*
Y288390D01*
X55216Y286129D01*
X56386Y284101D01*
X58041Y282446D01*
X60069Y281276D01*
X62330Y280670D01*
X64670D01*
X66931Y281276D01*
X68959Y282446D01*
X70614Y284101D01*
X71784Y286129D01*
X72390Y288390D01*
Y290730D01*
X71784Y292991D01*
X70614Y295019D01*
X68959Y296674D01*
X66931Y297844D01*
X64670Y298450D01*
D02*
G37*
G36*
X39270D02*
X36930D01*
X34669Y297844D01*
X32641Y296674D01*
X30986Y295019D01*
X29816Y292991D01*
X29210Y290730D01*
Y288390D01*
X29816Y286129D01*
X30986Y284101D01*
X32641Y282446D01*
X34669Y281276D01*
X36930Y280670D01*
X39270D01*
X41531Y281276D01*
X43559Y282446D01*
X45214Y284101D01*
X46384Y286129D01*
X46990Y288390D01*
Y290730D01*
X46384Y292991D01*
X45214Y295019D01*
X43559Y296674D01*
X41531Y297844D01*
X39270Y298450D01*
D02*
G37*
G36*
X-113163Y291465D02*
X-115437D01*
X-117537Y290595D01*
X-119145Y288987D01*
X-120015Y286887D01*
Y284613D01*
X-119145Y282513D01*
X-117537Y280905D01*
X-115437Y280035D01*
X-113163D01*
X-111063Y280905D01*
X-109455Y282513D01*
X-108585Y284613D01*
Y286887D01*
X-109455Y288987D01*
X-111063Y290595D01*
X-113163Y291465D01*
D02*
G37*
G36*
X-16643Y288925D02*
X-18917D01*
X-21017Y288055D01*
X-22625Y286447D01*
X-23495Y284347D01*
Y282073D01*
X-22625Y279973D01*
X-21017Y278365D01*
X-18917Y277495D01*
X-16643D01*
X-14543Y278365D01*
X-12935Y279973D01*
X-12065Y282073D01*
Y284347D01*
X-12935Y286447D01*
X-14543Y288055D01*
X-16643Y288925D01*
D02*
G37*
G36*
X-69850Y267280D02*
Y262890D01*
X-65460D01*
X-66275Y264857D01*
X-67883Y266465D01*
X-69850Y267280D01*
D02*
G37*
G36*
X-72390D02*
X-74357Y266465D01*
X-75965Y264857D01*
X-76780Y262890D01*
X-72390D01*
Y267280D01*
D02*
G37*
G36*
X-65460Y260350D02*
X-69850D01*
Y255960D01*
X-67883Y256775D01*
X-66275Y258383D01*
X-65460Y260350D01*
D02*
G37*
G36*
X-72390D02*
X-76780D01*
X-75965Y258383D01*
X-74357Y256775D01*
X-72390Y255960D01*
Y260350D01*
D02*
G37*
G36*
X125563Y256032D02*
X123357D01*
X121225Y255461D01*
X119313Y254357D01*
X118110Y253154D01*
X116907Y254357D01*
X114995Y255461D01*
X112864Y256032D01*
X110656D01*
X108525Y255461D01*
X106613Y254357D01*
X105053Y252797D01*
X103949Y250885D01*
X103378Y248754D01*
Y246546D01*
X103949Y244415D01*
X105053Y242503D01*
X106256Y241300D01*
X105053Y240097D01*
X103949Y238185D01*
X103378Y236054D01*
Y233846D01*
X103949Y231715D01*
X105053Y229803D01*
X106256Y228600D01*
X105053Y227397D01*
X103949Y225485D01*
X103378Y223354D01*
Y221147D01*
X103949Y219015D01*
X105053Y217103D01*
X106256Y215900D01*
X105053Y214697D01*
X103949Y212785D01*
X103378Y210653D01*
Y208447D01*
X103949Y206315D01*
X105053Y204403D01*
X106256Y203200D01*
X105053Y201997D01*
X103949Y200085D01*
X103378Y197953D01*
Y195746D01*
X103949Y193615D01*
X105053Y191703D01*
X106256Y190500D01*
X105053Y189297D01*
X103949Y187385D01*
X103378Y185254D01*
Y183046D01*
X103949Y180915D01*
X105053Y179003D01*
X106256Y177800D01*
X105053Y176597D01*
X103949Y174685D01*
X103378Y172554D01*
Y170347D01*
X103949Y168215D01*
X105053Y166303D01*
X106613Y164743D01*
X108525Y163639D01*
X110656Y163068D01*
X112864D01*
X114995Y163639D01*
X116907Y164743D01*
X118110Y165946D01*
X119313Y164743D01*
X121225Y163639D01*
X123357Y163068D01*
X125563D01*
X127695Y163639D01*
X129607Y164743D01*
X131167Y166303D01*
X132271Y168215D01*
X132842Y170347D01*
Y172554D01*
X132271Y174685D01*
X131167Y176597D01*
X129964Y177800D01*
X131167Y179003D01*
X132271Y180915D01*
X132842Y183046D01*
Y185254D01*
X132271Y187385D01*
X131167Y189297D01*
X129964Y190500D01*
X131167Y191703D01*
X132271Y193615D01*
X132797Y195580D01*
X124460D01*
Y198120D01*
X132797D01*
X132271Y200085D01*
X131167Y201997D01*
X129964Y203200D01*
X131167Y204403D01*
X132271Y206315D01*
X132797Y208280D01*
X124460D01*
Y210820D01*
X132797D01*
X132271Y212785D01*
X131167Y214697D01*
X129964Y215900D01*
X131167Y217103D01*
X132271Y219015D01*
X132842Y221147D01*
Y223354D01*
X132271Y225485D01*
X131167Y227397D01*
X129964Y228600D01*
X131167Y229803D01*
X132271Y231715D01*
X132797Y233680D01*
X124460D01*
Y236220D01*
X132797D01*
X132271Y238185D01*
X131167Y240097D01*
X129964Y241300D01*
X131167Y242503D01*
X132271Y244415D01*
X132842Y246546D01*
Y248754D01*
X132271Y250885D01*
X131167Y252797D01*
X129607Y254357D01*
X127695Y255461D01*
X125563Y256032D01*
D02*
G37*
G36*
X18917Y269875D02*
X16643D01*
X14543Y269005D01*
X12935Y267397D01*
X12065Y265297D01*
Y263023D01*
X12935Y260923D01*
X14543Y259315D01*
X16643Y258445D01*
X18917D01*
X19976Y258884D01*
X20901Y258387D01*
X22225Y257204D01*
Y255403D01*
X23095Y253303D01*
X24703Y251695D01*
X26803Y250825D01*
X29077D01*
X31177Y251695D01*
X32785Y253303D01*
X33655Y255403D01*
Y257677D01*
X32785Y259777D01*
X31177Y261385D01*
X29077Y262255D01*
X26803D01*
X25744Y261816D01*
X24819Y262313D01*
X23495Y263496D01*
Y265297D01*
X22625Y267397D01*
X21017Y269005D01*
X18917Y269875D01*
D02*
G37*
G36*
X-87763Y262255D02*
X-90037D01*
X-92137Y261385D01*
X-93745Y259777D01*
X-94615Y257677D01*
Y255403D01*
X-93745Y253303D01*
X-92137Y251695D01*
X-90037Y250825D01*
X-87763D01*
X-85663Y251695D01*
X-84055Y253303D01*
X-83185Y255403D01*
Y257677D01*
X-84055Y259777D01*
X-85663Y261385D01*
X-87763Y262255D01*
D02*
G37*
G36*
X-194443Y255905D02*
X-196717D01*
X-198817Y255035D01*
X-200425Y253427D01*
X-201295Y251327D01*
Y249053D01*
X-200425Y246953D01*
X-198817Y245345D01*
X-196717Y244475D01*
X-194443D01*
X-192343Y245345D01*
X-190735Y246953D01*
X-189865Y249053D01*
Y251327D01*
X-190735Y253427D01*
X-192343Y255035D01*
X-194443Y255905D01*
D02*
G37*
G36*
X220847Y250825D02*
X218573D01*
X216473Y249955D01*
X214865Y248347D01*
X213995Y246247D01*
Y243973D01*
X214865Y241873D01*
X216473Y240265D01*
X218573Y239395D01*
X220847D01*
X222947Y240265D01*
X224555Y241873D01*
X225425Y243973D01*
Y246247D01*
X224555Y248347D01*
X222947Y249955D01*
X220847Y250825D01*
D02*
G37*
G36*
X59557Y248285D02*
X57283D01*
X55183Y247415D01*
X53575Y245807D01*
X52705Y243707D01*
Y241433D01*
X53575Y239333D01*
X55183Y237725D01*
X57283Y236855D01*
X59557D01*
X61657Y237725D01*
X63265Y239333D01*
X64135Y241433D01*
Y243707D01*
X63265Y245807D01*
X61657Y247415D01*
X59557Y248285D01*
D02*
G37*
G36*
X151130Y240610D02*
Y236220D01*
X155520D01*
X154705Y238187D01*
X153097Y239795D01*
X151130Y240610D01*
D02*
G37*
G36*
X148590D02*
X146623Y239795D01*
X145015Y238187D01*
X144200Y236220D01*
X148590D01*
Y240610D01*
D02*
G37*
G36*
X86227Y247015D02*
X83953D01*
X81853Y246145D01*
X80245Y244537D01*
X79375Y242437D01*
Y240163D01*
X80245Y238063D01*
X81853Y236455D01*
X83953Y235585D01*
X86227D01*
X88327Y236455D01*
X89935Y238063D01*
X90805Y240163D01*
Y242437D01*
X89935Y244537D01*
X88327Y246145D01*
X86227Y247015D01*
D02*
G37*
G36*
X-73793Y244475D02*
X-76067D01*
X-78167Y243605D01*
X-79775Y241997D01*
X-80645Y239897D01*
Y237623D01*
X-79775Y235523D01*
X-78167Y233915D01*
X-76067Y233045D01*
X-73793D01*
X-71693Y233915D01*
X-70085Y235523D01*
X-69215Y237623D01*
Y239897D01*
X-70085Y241997D01*
X-71693Y243605D01*
X-73793Y244475D01*
D02*
G37*
G36*
X155520Y233680D02*
X151130D01*
Y229290D01*
X153097Y230105D01*
X154705Y231713D01*
X155520Y233680D01*
D02*
G37*
G36*
X148590D02*
X144200D01*
X145015Y231713D01*
X146623Y230105D01*
X148590Y229290D01*
Y233680D01*
D02*
G37*
G36*
X59690Y232990D02*
Y228600D01*
X64080D01*
X63265Y230567D01*
X61657Y232175D01*
X59690Y232990D01*
D02*
G37*
G36*
X57150D02*
X55183Y232175D01*
X53575Y230567D01*
X52760Y228600D01*
X57150D01*
Y232990D01*
D02*
G37*
G36*
X-104140Y230450D02*
Y226060D01*
X-99750D01*
X-100565Y228027D01*
X-102173Y229635D01*
X-104140Y230450D01*
D02*
G37*
G36*
X-106680D02*
X-108647Y229635D01*
X-110255Y228027D01*
X-111070Y226060D01*
X-106680D01*
Y230450D01*
D02*
G37*
G36*
X64080Y226060D02*
X59690D01*
Y221670D01*
X61657Y222485D01*
X63265Y224093D01*
X64080Y226060D01*
D02*
G37*
G36*
X57150D02*
X52760D01*
X53575Y224093D01*
X55183Y222485D01*
X57150Y221670D01*
Y226060D01*
D02*
G37*
G36*
X-99750Y223520D02*
X-104140D01*
Y219130D01*
X-102173Y219945D01*
X-100565Y221553D01*
X-99750Y223520D01*
D02*
G37*
G36*
X-106680D02*
X-111070D01*
X-110255Y221553D01*
X-108647Y219945D01*
X-106680Y219130D01*
Y223520D01*
D02*
G37*
G36*
X298225Y230495D02*
X297521D01*
Y211725D01*
X316292D01*
Y212428D01*
X315521Y216300D01*
X314011Y219947D01*
X311818Y223229D01*
X309026Y226021D01*
X305744Y228214D01*
X302097Y229725D01*
X298225Y230495D01*
D02*
G37*
G36*
X294981D02*
X294278D01*
X290406Y229725D01*
X286759Y228214D01*
X283477Y226021D01*
X280685Y223229D01*
X278492Y219947D01*
X276982Y216300D01*
X276211Y212428D01*
Y211725D01*
X294981D01*
Y230495D01*
D02*
G37*
G36*
X-294278D02*
X-294982D01*
Y211725D01*
X-276212D01*
Y212428D01*
X-276982Y216300D01*
X-278492Y219947D01*
X-280686Y223229D01*
X-283477Y226021D01*
X-286759Y228214D01*
X-290406Y229725D01*
X-294278Y230495D01*
D02*
G37*
G36*
X-297522D02*
X-298225D01*
X-302097Y229725D01*
X-305744Y228214D01*
X-309026Y226021D01*
X-311818Y223229D01*
X-314011Y219947D01*
X-315522Y216300D01*
X-316292Y212428D01*
Y211725D01*
X-297522D01*
Y230495D01*
D02*
G37*
G36*
X45587Y219075D02*
X43313D01*
X41213Y218205D01*
X39605Y216597D01*
X38735Y214497D01*
Y212223D01*
X39605Y210123D01*
X41213Y208515D01*
X43313Y207645D01*
X45587D01*
X47687Y208515D01*
X49295Y210123D01*
X50165Y212223D01*
Y214497D01*
X49295Y216597D01*
X47687Y218205D01*
X45587Y219075D01*
D02*
G37*
G36*
X-104273Y216535D02*
X-106547D01*
X-108647Y215665D01*
X-110255Y214057D01*
X-111125Y211957D01*
Y209683D01*
X-110255Y207583D01*
X-108647Y205975D01*
X-106547Y205105D01*
X-104273D01*
X-102173Y205975D01*
X-100565Y207583D01*
X-99695Y209683D01*
Y211957D01*
X-100565Y214057D01*
X-102173Y215665D01*
X-104273Y216535D01*
D02*
G37*
G36*
X151130Y207590D02*
Y203200D01*
X155520D01*
X154705Y205167D01*
X153097Y206775D01*
X151130Y207590D01*
D02*
G37*
G36*
X148590D02*
X146623Y206775D01*
X145015Y205167D01*
X144200Y203200D01*
X148590D01*
Y207590D01*
D02*
G37*
G36*
X77337Y211455D02*
X75063D01*
X72963Y210585D01*
X71355Y208977D01*
X70485Y206877D01*
Y204603D01*
X71355Y202503D01*
X72963Y200895D01*
X75063Y200025D01*
X77337D01*
X79437Y200895D01*
X81045Y202503D01*
X81915Y204603D01*
Y206877D01*
X81045Y208977D01*
X79437Y210585D01*
X77337Y211455D01*
D02*
G37*
G36*
X155520Y200660D02*
X151130D01*
Y196270D01*
X153097Y197085D01*
X154705Y198693D01*
X155520Y200660D01*
D02*
G37*
G36*
X148590D02*
X144200D01*
X145015Y198693D01*
X146623Y197085D01*
X148590Y196270D01*
Y200660D01*
D02*
G37*
G36*
X-101600Y199970D02*
Y195580D01*
X-97210D01*
X-98025Y197547D01*
X-99633Y199155D01*
X-101600Y199970D01*
D02*
G37*
G36*
X-104140D02*
X-106107Y199155D01*
X-107715Y197547D01*
X-108530Y195580D01*
X-104140D01*
Y199970D01*
D02*
G37*
G36*
X316292Y209185D02*
X297521D01*
Y190415D01*
X298225D01*
X302097Y191185D01*
X305744Y192695D01*
X309026Y194889D01*
X311818Y197680D01*
X314011Y200962D01*
X315521Y204609D01*
X316292Y208481D01*
Y209185D01*
D02*
G37*
G36*
X294981D02*
X276211D01*
Y208481D01*
X276982Y204609D01*
X278492Y200962D01*
X280685Y197680D01*
X283477Y194889D01*
X286759Y192695D01*
X290406Y191185D01*
X294278Y190415D01*
X294981D01*
Y209185D01*
D02*
G37*
G36*
X-276212D02*
X-294982D01*
Y190415D01*
X-294278D01*
X-290406Y191185D01*
X-286759Y192695D01*
X-283477Y194889D01*
X-280686Y197680D01*
X-278492Y200962D01*
X-276982Y204609D01*
X-276212Y208481D01*
Y209185D01*
D02*
G37*
G36*
X-297522D02*
X-316292D01*
Y208481D01*
X-315522Y204609D01*
X-314011Y200962D01*
X-311818Y197680D01*
X-309026Y194889D01*
X-305744Y192695D01*
X-302097Y191185D01*
X-298225Y190415D01*
X-297522D01*
Y209185D01*
D02*
G37*
G36*
X-97210Y193040D02*
X-101600D01*
Y188650D01*
X-99633Y189465D01*
X-98025Y191073D01*
X-97210Y193040D01*
D02*
G37*
G36*
X-104140D02*
X-108530D01*
X-107715Y191073D01*
X-106107Y189465D01*
X-104140Y188650D01*
Y193040D01*
D02*
G37*
G36*
X197987Y189865D02*
X195713D01*
X193613Y188995D01*
X192005Y187387D01*
X191135Y185287D01*
Y183013D01*
X192005Y180913D01*
X193613Y179305D01*
X195713Y178435D01*
X197987D01*
X200087Y179305D01*
X201695Y180913D01*
X202565Y183013D01*
Y185287D01*
X201695Y187387D01*
X200087Y188995D01*
X197987Y189865D01*
D02*
G37*
G36*
X150997Y187325D02*
X148723D01*
X146623Y186455D01*
X145015Y184847D01*
X144145Y182747D01*
Y180473D01*
X145015Y178373D01*
X146623Y176765D01*
X148723Y175895D01*
X150997D01*
X153097Y176765D01*
X154705Y178373D01*
X155575Y180473D01*
Y182747D01*
X154705Y184847D01*
X153097Y186455D01*
X150997Y187325D01*
D02*
G37*
G36*
X-89033Y179070D02*
X-91307D01*
X-93407Y178200D01*
X-95015Y176592D01*
X-95885Y174492D01*
Y172218D01*
X-95015Y170118D01*
X-93407Y168510D01*
X-91307Y167640D01*
X-89033D01*
X-86933Y168510D01*
X-85325Y170118D01*
X-84455Y172218D01*
Y174492D01*
X-85325Y176592D01*
X-86933Y178200D01*
X-89033Y179070D01*
D02*
G37*
G36*
X37967Y169545D02*
X35693D01*
X33593Y168675D01*
X31985Y167067D01*
X31115Y164967D01*
Y162693D01*
X31985Y160593D01*
X33593Y158985D01*
X35693Y158115D01*
X37967D01*
X40067Y158985D01*
X41675Y160593D01*
X42545Y162693D01*
Y164967D01*
X41675Y167067D01*
X40067Y168675D01*
X37967Y169545D01*
D02*
G37*
G36*
X-78873Y163289D02*
X-81147D01*
X-83247Y162419D01*
X-84855Y160811D01*
X-85725Y158711D01*
Y156437D01*
X-84855Y154337D01*
X-83247Y152729D01*
X-81147Y151859D01*
X-78873D01*
X-76773Y152729D01*
X-75165Y154337D01*
X-74295Y156437D01*
Y158711D01*
X-75165Y160811D01*
X-76773Y162419D01*
X-78873Y163289D01*
D02*
G37*
G36*
X-287153Y156845D02*
X-289427D01*
X-291527Y155975D01*
X-293135Y154367D01*
X-294005Y152267D01*
Y149993D01*
X-293135Y147893D01*
X-291527Y146285D01*
X-289427Y145415D01*
X-287153D01*
X-285053Y146285D01*
X-283445Y147893D01*
X-282575Y149993D01*
Y152267D01*
X-283445Y154367D01*
X-285053Y155975D01*
X-287153Y156845D01*
D02*
G37*
G36*
X41777Y154305D02*
X39503D01*
X37403Y153435D01*
X35795Y151827D01*
X34925Y149727D01*
Y147453D01*
X35795Y145353D01*
X37403Y143745D01*
X39503Y142875D01*
X41777D01*
X43877Y143745D01*
X45485Y145353D01*
X46355Y147453D01*
Y149727D01*
X45485Y151827D01*
X43877Y153435D01*
X41777Y154305D01*
D02*
G37*
G36*
X-52203Y151765D02*
X-54477D01*
X-56577Y150895D01*
X-58185Y149287D01*
X-59055Y147187D01*
Y144913D01*
X-58185Y142813D01*
X-56577Y141205D01*
X-54477Y140335D01*
X-52203D01*
X-50103Y141205D01*
X-48495Y142813D01*
X-47625Y144913D01*
Y147187D01*
X-48495Y149287D01*
X-50103Y150895D01*
X-52203Y151765D01*
D02*
G37*
G36*
X186557Y150495D02*
X184283D01*
X182183Y149625D01*
X180575Y148017D01*
X179705Y145917D01*
Y143643D01*
X180575Y141543D01*
X182183Y139935D01*
X184283Y139065D01*
X186557D01*
X188657Y139935D01*
X190265Y141543D01*
X191135Y143643D01*
Y145917D01*
X190265Y148017D01*
X188657Y149625D01*
X186557Y150495D01*
D02*
G37*
G36*
X332607Y149225D02*
X330333D01*
X328233Y148355D01*
X326625Y146747D01*
X325755Y144647D01*
Y142373D01*
X326625Y140273D01*
X328233Y138665D01*
X330333Y137795D01*
X332607D01*
X334707Y138665D01*
X336315Y140273D01*
X337185Y142373D01*
Y144647D01*
X336315Y146747D01*
X334707Y148355D01*
X332607Y149225D01*
D02*
G37*
G36*
X-331603D02*
X-333877D01*
X-335977Y148355D01*
X-337585Y146747D01*
X-338455Y144647D01*
Y142373D01*
X-337585Y140273D01*
X-335977Y138665D01*
X-333877Y137795D01*
X-331603D01*
X-329503Y138665D01*
X-327895Y140273D01*
X-327025Y142373D01*
Y144647D01*
X-327895Y146747D01*
X-329503Y148355D01*
X-331603Y149225D01*
D02*
G37*
G36*
X-266833Y146685D02*
X-269107D01*
X-271207Y145815D01*
X-272815Y144207D01*
X-273685Y142107D01*
Y139833D01*
X-272815Y137733D01*
X-271207Y136125D01*
X-269107Y135255D01*
X-266833D01*
X-264733Y136125D01*
X-263125Y137733D01*
X-262255Y139833D01*
Y142107D01*
X-263125Y144207D01*
X-264733Y145815D01*
X-266833Y146685D01*
D02*
G37*
G36*
X41910Y136470D02*
Y132080D01*
X46300D01*
X45485Y134047D01*
X43877Y135655D01*
X41910Y136470D01*
D02*
G37*
G36*
X39370D02*
X37403Y135655D01*
X35795Y134047D01*
X34980Y132080D01*
X39370D01*
Y136470D01*
D02*
G37*
G36*
X-90270Y144780D02*
X-92610D01*
X-94871Y144174D01*
X-96899Y143004D01*
X-98554Y141349D01*
X-99724Y139321D01*
X-100330Y137060D01*
Y134720D01*
X-99724Y132459D01*
X-98554Y130431D01*
X-96899Y128776D01*
X-94871Y127606D01*
X-92610Y127000D01*
X-90270D01*
X-88009Y127606D01*
X-85981Y128776D01*
X-84326Y130431D01*
X-83156Y132459D01*
X-82550Y134720D01*
Y137060D01*
X-83156Y139321D01*
X-84326Y141349D01*
X-85981Y143004D01*
X-88009Y144174D01*
X-90270Y144780D01*
D02*
G37*
G36*
X46300Y129540D02*
X41910D01*
Y125150D01*
X43877Y125965D01*
X45485Y127573D01*
X46300Y129540D01*
D02*
G37*
G36*
X39370D02*
X34980D01*
X35795Y127573D01*
X37403Y125965D01*
X39370Y125150D01*
Y129540D01*
D02*
G37*
G36*
X-56013Y130175D02*
X-58287D01*
X-60387Y129305D01*
X-61995Y127697D01*
X-62865Y125597D01*
Y123323D01*
X-61995Y121223D01*
X-60387Y119615D01*
X-58287Y118745D01*
X-56013D01*
X-53913Y119615D01*
X-52305Y121223D01*
X-51435Y123323D01*
Y125597D01*
X-52305Y127697D01*
X-53913Y129305D01*
X-56013Y130175D01*
D02*
G37*
G36*
X46857Y120015D02*
X44583D01*
X42483Y119145D01*
X40875Y117537D01*
X40005Y115437D01*
Y113163D01*
X40875Y111063D01*
X42483Y109455D01*
X44583Y108585D01*
X46857D01*
X48957Y109455D01*
X50565Y111063D01*
X51435Y113163D01*
Y115437D01*
X50565Y117537D01*
X48957Y119145D01*
X46857Y120015D01*
D02*
G37*
G36*
X18917Y111125D02*
X16643D01*
X14543Y110255D01*
X12935Y108647D01*
X12065Y106547D01*
Y104273D01*
X12935Y102173D01*
X14543Y100565D01*
X16643Y99695D01*
X18917D01*
X21017Y100565D01*
X22625Y102173D01*
X23495Y104273D01*
Y106547D01*
X22625Y108647D01*
X21017Y110255D01*
X18917Y111125D01*
D02*
G37*
G36*
X-72523Y98425D02*
X-74797D01*
X-76897Y97555D01*
X-78505Y95947D01*
X-79375Y93847D01*
Y91573D01*
X-78505Y89473D01*
X-76897Y87865D01*
X-74797Y86995D01*
X-72523D01*
X-70423Y87865D01*
X-68815Y89473D01*
X-67945Y91573D01*
Y93847D01*
X-68815Y95947D01*
X-70423Y97555D01*
X-72523Y98425D01*
D02*
G37*
G36*
X283077Y94615D02*
X280803D01*
X278703Y93745D01*
X277095Y92137D01*
X276225Y90037D01*
Y87763D01*
X277095Y85663D01*
X278703Y84055D01*
X280803Y83185D01*
X283077D01*
X285177Y84055D01*
X286785Y85663D01*
X287655Y87763D01*
Y90037D01*
X286785Y92137D01*
X285177Y93745D01*
X283077Y94615D01*
D02*
G37*
G36*
X-187210Y89535D02*
X-189484D01*
X-191584Y88665D01*
X-193192Y87057D01*
X-194062Y84957D01*
Y82683D01*
X-193192Y80583D01*
X-191584Y78975D01*
X-189484Y78105D01*
X-187210D01*
X-185110Y78975D01*
X-183502Y80583D01*
X-182632Y82683D01*
Y84957D01*
X-183502Y87057D01*
X-185110Y88665D01*
X-187210Y89535D01*
D02*
G37*
G36*
X-238893D02*
X-241167D01*
X-243267Y88665D01*
X-244875Y87057D01*
X-245745Y84957D01*
Y82683D01*
X-244875Y80583D01*
X-243267Y78975D01*
X-241167Y78105D01*
X-238893D01*
X-236793Y78975D01*
X-235185Y80583D01*
X-234315Y82683D01*
Y84957D01*
X-235185Y87057D01*
X-236793Y88665D01*
X-238893Y89535D01*
D02*
G37*
G36*
X-48393Y86995D02*
X-50667D01*
X-52767Y86125D01*
X-54375Y84517D01*
X-55245Y82417D01*
Y80143D01*
X-54375Y78043D01*
X-52767Y76435D01*
X-50667Y75565D01*
X-48393D01*
X-46293Y76435D01*
X-44685Y78043D01*
X-43815Y80143D01*
Y82417D01*
X-44685Y84517D01*
X-46293Y86125D01*
X-48393Y86995D01*
D02*
G37*
G36*
X176530Y67890D02*
Y63500D01*
X180920D01*
X180105Y65467D01*
X178497Y67075D01*
X176530Y67890D01*
D02*
G37*
G36*
X173990D02*
X172023Y67075D01*
X170415Y65467D01*
X169600Y63500D01*
X173990D01*
Y67890D01*
D02*
G37*
G36*
X37967Y71755D02*
X35693D01*
X33593Y70885D01*
X31985Y69277D01*
X31115Y67177D01*
Y64903D01*
X31985Y62803D01*
X33593Y61195D01*
X35693Y60325D01*
X37967D01*
X40067Y61195D01*
X41675Y62803D01*
X42545Y64903D01*
Y67177D01*
X41675Y69277D01*
X40067Y70885D01*
X37967Y71755D01*
D02*
G37*
G36*
X-227463D02*
X-229737D01*
X-231837Y70885D01*
X-233445Y69277D01*
X-234315Y67177D01*
Y64903D01*
X-233445Y62803D01*
X-231837Y61195D01*
X-229737Y60325D01*
X-227463D01*
X-225363Y61195D01*
X-223755Y62803D01*
X-222885Y64903D01*
Y67177D01*
X-223755Y69277D01*
X-225363Y70885D01*
X-227463Y71755D01*
D02*
G37*
G36*
X-22754Y70485D02*
X-25028D01*
X-27128Y69615D01*
X-28736Y68007D01*
X-29606Y65907D01*
Y63633D01*
X-28736Y61533D01*
X-27128Y59925D01*
X-25028Y59055D01*
X-22754D01*
X-20654Y59925D01*
X-19046Y61533D01*
X-18176Y63633D01*
Y65907D01*
X-19046Y68007D01*
X-20654Y69615D01*
X-22754Y70485D01*
D02*
G37*
G36*
X180920Y60960D02*
X176530D01*
Y56570D01*
X178497Y57385D01*
X180105Y58993D01*
X180920Y60960D01*
D02*
G37*
G36*
X173990D02*
X169600D01*
X170415Y58993D01*
X172023Y57385D01*
X173990Y56570D01*
Y60960D01*
D02*
G37*
G36*
X-237490Y59000D02*
Y54610D01*
X-233100D01*
X-233915Y56577D01*
X-235523Y58185D01*
X-237490Y59000D01*
D02*
G37*
G36*
X-240030D02*
X-241997Y58185D01*
X-243605Y56577D01*
X-244420Y54610D01*
X-240030D01*
Y59000D01*
D02*
G37*
G36*
X205740Y56460D02*
Y52070D01*
X210130D01*
X209315Y54037D01*
X207707Y55645D01*
X205740Y56460D01*
D02*
G37*
G36*
X203200D02*
X201233Y55645D01*
X199625Y54037D01*
X198810Y52070D01*
X203200D01*
Y56460D01*
D02*
G37*
G36*
X236087Y60325D02*
X233813D01*
X231713Y59455D01*
X230105Y57847D01*
X229235Y55747D01*
Y53473D01*
X230105Y51373D01*
X231713Y49765D01*
X233813Y48895D01*
X236087D01*
X238187Y49765D01*
X239795Y51373D01*
X240665Y53473D01*
Y55747D01*
X239795Y57847D01*
X238187Y59455D01*
X236087Y60325D01*
D02*
G37*
G36*
X-233100Y52070D02*
X-237490D01*
Y47680D01*
X-235523Y48495D01*
X-233915Y50103D01*
X-233100Y52070D01*
D02*
G37*
G36*
X-240030D02*
X-244420D01*
X-243605Y50103D01*
X-241997Y48495D01*
X-240030Y47680D01*
Y52070D01*
D02*
G37*
G36*
X-208280Y50110D02*
Y45720D01*
X-203890D01*
X-204705Y47687D01*
X-206313Y49295D01*
X-208280Y50110D01*
D02*
G37*
G36*
X-210820D02*
X-212787Y49295D01*
X-214395Y47687D01*
X-215210Y45720D01*
X-210820D01*
Y50110D01*
D02*
G37*
G36*
X210130Y49530D02*
X205740D01*
Y45140D01*
X207707Y45955D01*
X209315Y47563D01*
X210130Y49530D01*
D02*
G37*
G36*
X203200D02*
X198810D01*
X199625Y47563D01*
X201233Y45955D01*
X203200Y45140D01*
Y49530D01*
D02*
G37*
G36*
X-287120Y60960D02*
X-289460D01*
X-291721Y60354D01*
X-293749Y59184D01*
X-295404Y57529D01*
X-296574Y55501D01*
X-297180Y53240D01*
Y50900D01*
X-296574Y48639D01*
X-295404Y46611D01*
X-293749Y44956D01*
X-291721Y43786D01*
X-289460Y43180D01*
X-287120D01*
X-284859Y43786D01*
X-282831Y44956D01*
X-281176Y46611D01*
X-280006Y48639D01*
X-279400Y50900D01*
Y53240D01*
X-280006Y55501D01*
X-281176Y57529D01*
X-282831Y59184D01*
X-284859Y60354D01*
X-287120Y60960D01*
D02*
G37*
G36*
X341630Y45030D02*
Y40640D01*
X346020D01*
X345205Y42607D01*
X343597Y44215D01*
X341630Y45030D01*
D02*
G37*
G36*
X339090D02*
X337123Y44215D01*
X335515Y42607D01*
X334700Y40640D01*
X339090D01*
Y45030D01*
D02*
G37*
G36*
X286920Y58420D02*
X284580D01*
X282319Y57814D01*
X280291Y56644D01*
X278636Y54989D01*
X277466Y52961D01*
X276860Y50700D01*
Y48360D01*
X277466Y46099D01*
X278636Y44071D01*
X280291Y42416D01*
X282319Y41246D01*
X284580Y40640D01*
X286920D01*
X289181Y41246D01*
X291209Y42416D01*
X292864Y44071D01*
X294034Y46099D01*
X294640Y48360D01*
Y50700D01*
X294034Y52961D01*
X292864Y54989D01*
X291209Y56644D01*
X289181Y57814D01*
X286920Y58420D01*
D02*
G37*
G36*
X-203890Y43180D02*
X-208280D01*
Y38790D01*
X-206313Y39605D01*
X-204705Y41213D01*
X-203890Y43180D01*
D02*
G37*
G36*
X-210820D02*
X-215210D01*
X-214395Y41213D01*
X-212787Y39605D01*
X-210820Y38790D01*
Y43180D01*
D02*
G37*
G36*
X-337820Y42490D02*
Y38100D01*
X-333430D01*
X-334245Y40067D01*
X-335853Y41675D01*
X-337820Y42490D01*
D02*
G37*
G36*
X-340360D02*
X-342327Y41675D01*
X-343935Y40067D01*
X-344750Y38100D01*
X-340360D01*
Y42490D01*
D02*
G37*
G36*
X-171593Y47022D02*
X-173866D01*
X-175967Y46152D01*
X-177574Y44544D01*
X-178444Y42444D01*
Y40170D01*
X-177574Y38070D01*
X-175967Y36462D01*
X-173866Y35592D01*
X-171593D01*
X-169492Y36462D01*
X-167885Y38070D01*
X-167014Y40170D01*
Y42444D01*
X-167885Y44544D01*
X-169492Y46152D01*
X-171593Y47022D01*
D02*
G37*
G36*
X346020Y38100D02*
X341630D01*
Y33710D01*
X343597Y34525D01*
X345205Y36133D01*
X346020Y38100D01*
D02*
G37*
G36*
X339090D02*
X334700D01*
X335515Y36133D01*
X337123Y34525D01*
X339090Y33710D01*
Y38100D01*
D02*
G37*
G36*
X-333430Y35560D02*
X-337820D01*
Y31170D01*
X-335853Y31985D01*
X-334245Y33593D01*
X-333430Y35560D01*
D02*
G37*
G36*
X-340360D02*
X-344750D01*
X-343935Y33593D01*
X-342327Y31985D01*
X-340360Y31170D01*
Y35560D01*
D02*
G37*
G36*
X257677Y38735D02*
X255403D01*
X253303Y37865D01*
X251695Y36257D01*
X250825Y34157D01*
Y31883D01*
X251695Y29783D01*
X253303Y28175D01*
X255403Y27305D01*
X257677D01*
X259777Y28175D01*
X261385Y29783D01*
X262255Y31883D01*
Y34157D01*
X261385Y36257D01*
X259777Y37865D01*
X257677Y38735D01*
D02*
G37*
G36*
X164967Y34290D02*
X162693D01*
X160593Y33420D01*
X158985Y31812D01*
X158115Y29712D01*
Y27438D01*
X158985Y25338D01*
X160593Y23730D01*
X162693Y22860D01*
X164967D01*
X167067Y23730D01*
X168675Y25338D01*
X169545Y27438D01*
Y29712D01*
X168675Y31812D01*
X167067Y33420D01*
X164967Y34290D01*
D02*
G37*
G36*
X39270Y36830D02*
X36930D01*
X34669Y36224D01*
X32641Y35054D01*
X30986Y33399D01*
X29816Y31371D01*
X29210Y29110D01*
Y26770D01*
X29816Y24509D01*
X30986Y22481D01*
X32641Y20826D01*
X34669Y19656D01*
X36930Y19050D01*
X39270D01*
X41531Y19656D01*
X43559Y20826D01*
X45214Y22481D01*
X46384Y24509D01*
X46990Y26770D01*
Y29110D01*
X46384Y31371D01*
X45214Y33399D01*
X43559Y35054D01*
X41531Y36224D01*
X39270Y36830D01*
D02*
G37*
G36*
X13870D02*
X11530D01*
X9269Y36224D01*
X7241Y35054D01*
X5586Y33399D01*
X4416Y31371D01*
X3810Y29110D01*
Y26770D01*
X4416Y24509D01*
X5586Y22481D01*
X7241Y20826D01*
X9269Y19656D01*
X11530Y19050D01*
X13870D01*
X16131Y19656D01*
X18159Y20826D01*
X19814Y22481D01*
X20984Y24509D01*
X21590Y26770D01*
Y29110D01*
X20984Y31371D01*
X19814Y33399D01*
X18159Y35054D01*
X16131Y36224D01*
X13870Y36830D01*
D02*
G37*
G36*
X-11530D02*
X-13870D01*
X-16131Y36224D01*
X-18159Y35054D01*
X-19814Y33399D01*
X-20984Y31371D01*
X-21590Y29110D01*
Y26770D01*
X-20984Y24509D01*
X-19814Y22481D01*
X-18159Y20826D01*
X-16131Y19656D01*
X-13870Y19050D01*
X-11530D01*
X-9269Y19656D01*
X-7241Y20826D01*
X-5586Y22481D01*
X-4416Y24509D01*
X-3810Y26770D01*
Y29110D01*
X-4416Y31371D01*
X-5586Y33399D01*
X-7241Y35054D01*
X-9269Y36224D01*
X-11530Y36830D01*
D02*
G37*
G36*
X-36930D02*
X-39270D01*
X-41531Y36224D01*
X-43559Y35054D01*
X-45214Y33399D01*
X-46384Y31371D01*
X-46990Y29110D01*
Y26770D01*
X-46384Y24509D01*
X-45214Y22481D01*
X-43559Y20826D01*
X-41531Y19656D01*
X-39270Y19050D01*
X-36930D01*
X-34669Y19656D01*
X-32641Y20826D01*
X-30986Y22481D01*
X-29816Y24509D01*
X-29210Y26770D01*
Y29110D01*
X-29816Y31371D01*
X-30986Y33399D01*
X-32641Y35054D01*
X-34669Y36224D01*
X-36930Y36830D01*
D02*
G37*
G36*
X111660Y31750D02*
X109320D01*
X107059Y31144D01*
X105031Y29974D01*
X103376Y28319D01*
X102206Y26291D01*
X101600Y24030D01*
Y21690D01*
X102206Y19429D01*
X103376Y17401D01*
X105031Y15746D01*
X107059Y14576D01*
X109320Y13970D01*
X111660D01*
X113921Y14576D01*
X115949Y15746D01*
X117604Y17401D01*
X118774Y19429D01*
X119380Y21690D01*
Y24030D01*
X118774Y26291D01*
X117604Y28319D01*
X115949Y29974D01*
X113921Y31144D01*
X111660Y31750D01*
D02*
G37*
G36*
X86260D02*
X83920D01*
X81659Y31144D01*
X79631Y29974D01*
X77976Y28319D01*
X76806Y26291D01*
X76200Y24030D01*
Y21690D01*
X76806Y19429D01*
X77976Y17401D01*
X79631Y15746D01*
X81659Y14576D01*
X83920Y13970D01*
X86260D01*
X88521Y14576D01*
X90549Y15746D01*
X92204Y17401D01*
X93374Y19429D01*
X93980Y21690D01*
Y24030D01*
X93374Y26291D01*
X92204Y28319D01*
X90549Y29974D01*
X88521Y31144D01*
X86260Y31750D01*
D02*
G37*
G36*
X-334143Y24765D02*
X-336417D01*
X-338517Y23895D01*
X-340125Y22287D01*
X-340995Y20187D01*
Y17913D01*
X-340125Y15813D01*
X-338517Y14205D01*
X-336417Y13335D01*
X-334143D01*
X-332043Y14205D01*
X-330435Y15813D01*
X-329565Y17913D01*
Y20187D01*
X-330435Y22287D01*
X-332043Y23895D01*
X-334143Y24765D01*
D02*
G37*
G36*
X39370Y13280D02*
Y8890D01*
X43760D01*
X42945Y10857D01*
X41337Y12465D01*
X39370Y13280D01*
D02*
G37*
G36*
X36830D02*
X34863Y12465D01*
X33255Y10857D01*
X32440Y8890D01*
X36830D01*
Y13280D01*
D02*
G37*
G36*
X-249053Y18415D02*
X-251327D01*
X-253427Y17545D01*
X-255035Y15937D01*
X-255905Y13837D01*
Y11563D01*
X-255035Y9463D01*
X-253427Y7855D01*
X-251327Y6985D01*
X-249053D01*
X-246953Y7855D01*
X-245345Y9463D01*
X-244475Y11563D01*
Y13837D01*
X-245345Y15937D01*
X-246953Y17545D01*
X-249053Y18415D01*
D02*
G37*
G36*
X43760Y6350D02*
X39370D01*
Y1960D01*
X41337Y2775D01*
X42945Y4383D01*
X43760Y6350D01*
D02*
G37*
G36*
X36830D02*
X32440D01*
X33255Y4383D01*
X34863Y2775D01*
X36830Y1960D01*
Y6350D01*
D02*
G37*
G36*
X-36930Y11430D02*
X-39270D01*
X-41531Y10824D01*
X-43559Y9654D01*
X-45214Y7999D01*
X-46384Y5971D01*
X-46990Y3710D01*
Y1370D01*
X-46384Y-891D01*
X-45214Y-2919D01*
X-43559Y-4574D01*
X-41531Y-5744D01*
X-39270Y-6350D01*
X-36930D01*
X-34669Y-5744D01*
X-32641Y-4574D01*
X-30986Y-2919D01*
X-29816Y-891D01*
X-29210Y1370D01*
Y3710D01*
X-29816Y5971D01*
X-30986Y7999D01*
X-32641Y9654D01*
X-34669Y10824D01*
X-36930Y11430D01*
D02*
G37*
G36*
X5080Y-17200D02*
Y-21590D01*
X9470D01*
X8655Y-19623D01*
X7047Y-18015D01*
X5080Y-17200D01*
D02*
G37*
G36*
X2540D02*
X573Y-18015D01*
X-1035Y-19623D01*
X-1850Y-21590D01*
X2540D01*
Y-17200D01*
D02*
G37*
G36*
X257810Y-19740D02*
Y-24130D01*
X262200D01*
X261385Y-22163D01*
X259777Y-20555D01*
X257810Y-19740D01*
D02*
G37*
G36*
X255270D02*
X253303Y-20555D01*
X251695Y-22163D01*
X250880Y-24130D01*
X255270D01*
Y-19740D01*
D02*
G37*
G36*
X9470Y-24130D02*
X5080D01*
Y-28520D01*
X7047Y-27705D01*
X8655Y-26097D01*
X9470Y-24130D01*
D02*
G37*
G36*
X2540D02*
X-1850D01*
X-1035Y-26097D01*
X573Y-27705D01*
X2540Y-28520D01*
Y-24130D01*
D02*
G37*
G36*
X-292233Y-17145D02*
X-294507D01*
X-296607Y-18015D01*
X-298215Y-19623D01*
X-299085Y-21723D01*
Y-23997D01*
X-298215Y-26097D01*
X-296607Y-27705D01*
X-294507Y-28575D01*
X-292233D01*
X-290133Y-27705D01*
X-288525Y-26097D01*
X-287655Y-23997D01*
Y-21723D01*
X-288525Y-19623D01*
X-290133Y-18015D01*
X-292233Y-17145D01*
D02*
G37*
G36*
X-21723Y-17435D02*
X-23997D01*
X-26098Y-18305D01*
X-27705Y-19913D01*
X-28575Y-22013D01*
Y-24287D01*
X-27705Y-26388D01*
X-26098Y-27995D01*
X-23997Y-28865D01*
X-21723D01*
X-19623Y-27995D01*
X-18015Y-26388D01*
X-17145Y-24287D01*
Y-22013D01*
X-18015Y-19913D01*
X-19623Y-18305D01*
X-21723Y-17435D01*
D02*
G37*
G36*
X262200Y-26670D02*
X257810D01*
Y-31060D01*
X259777Y-30245D01*
X261385Y-28637D01*
X262200Y-26670D01*
D02*
G37*
G36*
X255270D02*
X250880D01*
X251695Y-28637D01*
X253303Y-30245D01*
X255270Y-31060D01*
Y-26670D01*
D02*
G37*
G36*
X-157480Y-27360D02*
Y-31750D01*
X-153090D01*
X-153905Y-29783D01*
X-155513Y-28175D01*
X-157480Y-27360D01*
D02*
G37*
G36*
X-160020D02*
X-161987Y-28175D01*
X-163595Y-29783D01*
X-164410Y-31750D01*
X-160020D01*
Y-27360D01*
D02*
G37*
G36*
X166237Y-20955D02*
X163963D01*
X161863Y-21825D01*
X160255Y-23433D01*
X159385Y-25533D01*
Y-27807D01*
X160255Y-29907D01*
X161863Y-31515D01*
X163963Y-32385D01*
X166237D01*
X168337Y-31515D01*
X169945Y-29907D01*
X170815Y-27807D01*
Y-25533D01*
X169945Y-23433D01*
X168337Y-21825D01*
X166237Y-20955D01*
D02*
G37*
G36*
X321177Y-26035D02*
X318903D01*
X316803Y-26905D01*
X315195Y-28513D01*
X314325Y-30613D01*
Y-32887D01*
X315195Y-34987D01*
X316803Y-36595D01*
X318903Y-37465D01*
X321177D01*
X323277Y-36595D01*
X324885Y-34987D01*
X325755Y-32887D01*
Y-30613D01*
X324885Y-28513D01*
X323277Y-26905D01*
X321177Y-26035D01*
D02*
G37*
G36*
X-153090Y-34290D02*
X-157480D01*
Y-38680D01*
X-155513Y-37865D01*
X-153905Y-36257D01*
X-153090Y-34290D01*
D02*
G37*
G36*
X-160020D02*
X-164410D01*
X-163595Y-36257D01*
X-161987Y-37865D01*
X-160020Y-38680D01*
Y-34290D01*
D02*
G37*
G36*
X-246513Y-28575D02*
X-248787D01*
X-250887Y-29445D01*
X-252495Y-31053D01*
X-253365Y-33153D01*
Y-35427D01*
X-252495Y-37527D01*
X-250887Y-39135D01*
X-248787Y-40005D01*
X-246513D01*
X-244413Y-39135D01*
X-242805Y-37527D01*
X-241935Y-35427D01*
Y-33153D01*
X-242805Y-31053D01*
X-244413Y-29445D01*
X-246513Y-28575D01*
D02*
G37*
G36*
X34290Y-48950D02*
Y-53340D01*
X38680D01*
X37865Y-51373D01*
X36257Y-49765D01*
X34290Y-48950D01*
D02*
G37*
G36*
X31750D02*
X29783Y-49765D01*
X28175Y-51373D01*
X27360Y-53340D01*
X31750D01*
Y-48950D01*
D02*
G37*
G36*
X38680Y-55880D02*
X34290D01*
Y-60270D01*
X36257Y-59455D01*
X37865Y-57847D01*
X38680Y-55880D01*
D02*
G37*
G36*
X31750D02*
X27360D01*
X28175Y-57847D01*
X29783Y-59455D01*
X31750Y-60270D01*
Y-55880D01*
D02*
G37*
G36*
X17647Y-48895D02*
X15373D01*
X13273Y-49765D01*
X11665Y-51373D01*
X10795Y-53473D01*
Y-55747D01*
X11665Y-57847D01*
X13273Y-59455D01*
X15373Y-60325D01*
X17647D01*
X19747Y-59455D01*
X21355Y-57847D01*
X22225Y-55747D01*
Y-53473D01*
X21355Y-51373D01*
X19747Y-49765D01*
X17647Y-48895D01*
D02*
G37*
G36*
X190400Y-49530D02*
X188060D01*
X185799Y-50136D01*
X183771Y-51306D01*
X182116Y-52961D01*
X180946Y-54989D01*
X180340Y-57250D01*
Y-59590D01*
X180946Y-61851D01*
X182116Y-63879D01*
X183771Y-65534D01*
X185799Y-66704D01*
X188060Y-67310D01*
X190400D01*
X192661Y-66704D01*
X194689Y-65534D01*
X196344Y-63879D01*
X197514Y-61851D01*
X198120Y-59590D01*
Y-57250D01*
X197514Y-54989D01*
X196344Y-52961D01*
X194689Y-51306D01*
X192661Y-50136D01*
X190400Y-49530D01*
D02*
G37*
G36*
X-229335Y-56515D02*
X-231675D01*
X-233936Y-57121D01*
X-235964Y-58291D01*
X-237619Y-59946D01*
X-238789Y-61974D01*
X-239395Y-64235D01*
Y-66575D01*
X-238789Y-68836D01*
X-237619Y-70864D01*
X-235964Y-72519D01*
X-233936Y-73689D01*
X-231675Y-74295D01*
X-229335D01*
X-227074Y-73689D01*
X-225046Y-72519D01*
X-223391Y-70864D01*
X-222221Y-68836D01*
X-221615Y-66575D01*
Y-64235D01*
X-222221Y-61974D01*
X-223391Y-59946D01*
X-225046Y-58291D01*
X-227074Y-57121D01*
X-229335Y-56515D01*
D02*
G37*
G36*
X-266833Y-70485D02*
X-269107D01*
X-271207Y-71355D01*
X-272815Y-72963D01*
X-273685Y-75063D01*
Y-77337D01*
X-272815Y-79437D01*
X-271207Y-81045D01*
X-269107Y-81915D01*
X-266833D01*
X-264733Y-81045D01*
X-263125Y-79437D01*
X-262255Y-77337D01*
Y-75063D01*
X-263125Y-72963D01*
X-264733Y-71355D01*
X-266833Y-70485D01*
D02*
G37*
G36*
X-174123Y-79375D02*
X-176397D01*
X-178497Y-80245D01*
X-180105Y-81853D01*
X-180975Y-83953D01*
Y-86227D01*
X-180105Y-88327D01*
X-178497Y-89935D01*
X-176397Y-90805D01*
X-174123D01*
X-172023Y-89935D01*
X-170415Y-88327D01*
X-169545Y-86227D01*
Y-83953D01*
X-170415Y-81853D01*
X-172023Y-80245D01*
X-174123Y-79375D01*
D02*
G37*
G36*
X-238893D02*
X-241167D01*
X-243267Y-80245D01*
X-244875Y-81853D01*
X-245745Y-83953D01*
Y-86227D01*
X-244875Y-88327D01*
X-243267Y-89935D01*
X-241167Y-90805D01*
X-238893D01*
X-236793Y-89935D01*
X-235185Y-88327D01*
X-234315Y-86227D01*
Y-83953D01*
X-235185Y-81853D01*
X-236793Y-80245D01*
X-238893Y-79375D01*
D02*
G37*
G36*
X-174123Y-94615D02*
X-176397D01*
X-178497Y-95485D01*
X-180105Y-97093D01*
X-180975Y-99193D01*
Y-101467D01*
X-180105Y-103567D01*
X-178497Y-105175D01*
X-176397Y-106045D01*
X-174123D01*
X-172023Y-105175D01*
X-170415Y-103567D01*
X-169545Y-101467D01*
Y-99193D01*
X-170415Y-97093D01*
X-172023Y-95485D01*
X-174123Y-94615D01*
D02*
G37*
G36*
X-200793D02*
X-203067D01*
X-205167Y-95485D01*
X-206775Y-97093D01*
X-207645Y-99193D01*
Y-101467D01*
X-206775Y-103567D01*
X-205167Y-105175D01*
X-203067Y-106045D01*
X-200793D01*
X-198693Y-105175D01*
X-197085Y-103567D01*
X-196215Y-101467D01*
Y-99193D01*
X-197085Y-97093D01*
X-198693Y-95485D01*
X-200793Y-94615D01*
D02*
G37*
G36*
X267837Y-136525D02*
X265563D01*
X263463Y-137395D01*
X261855Y-139003D01*
X260985Y-141103D01*
Y-143377D01*
X261855Y-145477D01*
X263463Y-147085D01*
X265563Y-147955D01*
X267837D01*
X269937Y-147085D01*
X271545Y-145477D01*
X272415Y-143377D01*
Y-141103D01*
X271545Y-139003D01*
X269937Y-137395D01*
X267837Y-136525D01*
D02*
G37*
G36*
X103499Y-159385D02*
X101225D01*
X99125Y-160255D01*
X97517Y-161863D01*
X96647Y-163963D01*
Y-166237D01*
X97517Y-168337D01*
X99125Y-169945D01*
X101225Y-170815D01*
X103499D01*
X105599Y-169945D01*
X107207Y-168337D01*
X108077Y-166237D01*
Y-163963D01*
X107207Y-161863D01*
X105599Y-160255D01*
X103499Y-159385D01*
D02*
G37*
G36*
X-194443Y-179705D02*
X-196717D01*
X-198817Y-180575D01*
X-200425Y-182183D01*
X-201295Y-184283D01*
Y-186557D01*
X-200425Y-188657D01*
X-198817Y-190265D01*
X-196717Y-191135D01*
X-194443D01*
X-192343Y-190265D01*
X-190735Y-188657D01*
X-189865Y-186557D01*
Y-184283D01*
X-190735Y-182183D01*
X-192343Y-180575D01*
X-194443Y-179705D01*
D02*
G37*
G36*
X298225Y-183001D02*
X297522D01*
Y-201771D01*
X316292D01*
Y-201067D01*
X315522Y-197196D01*
X314011Y-193549D01*
X311818Y-190266D01*
X309026Y-187475D01*
X305744Y-185282D01*
X302097Y-183771D01*
X298225Y-183001D01*
D02*
G37*
G36*
X294982D02*
X294278D01*
X290406Y-183771D01*
X286759Y-185282D01*
X283477Y-187475D01*
X280686Y-190266D01*
X278492Y-193549D01*
X276982Y-197196D01*
X276212Y-201067D01*
Y-201771D01*
X294982D01*
Y-183001D01*
D02*
G37*
G36*
X-294278Y-183001D02*
X-294981D01*
Y-201771D01*
X-276211D01*
Y-201068D01*
X-276982Y-197196D01*
X-278492Y-193549D01*
X-280685Y-190266D01*
X-283477Y-187475D01*
X-286759Y-185282D01*
X-290406Y-183771D01*
X-294278Y-183001D01*
D02*
G37*
G36*
X-297521D02*
X-298225D01*
X-302097Y-183771D01*
X-305744Y-185282D01*
X-309026Y-187475D01*
X-311818Y-190266D01*
X-314011Y-193549D01*
X-315521Y-197196D01*
X-316292Y-201068D01*
Y-201771D01*
X-297521D01*
Y-183001D01*
D02*
G37*
G36*
X125730Y-197540D02*
Y-201930D01*
X130120D01*
X129305Y-199963D01*
X127697Y-198355D01*
X125730Y-197540D01*
D02*
G37*
G36*
X123190D02*
X121223Y-198355D01*
X119615Y-199963D01*
X118800Y-201930D01*
X123190D01*
Y-197540D01*
D02*
G37*
G36*
X130120Y-204470D02*
X125730D01*
Y-208860D01*
X127697Y-208045D01*
X129305Y-206437D01*
X130120Y-204470D01*
D02*
G37*
G36*
X123190D02*
X118800D01*
X119615Y-206437D01*
X121223Y-208045D01*
X123190Y-208860D01*
Y-204470D01*
D02*
G37*
G36*
X-68580Y-215320D02*
Y-219710D01*
X-64190D01*
X-65005Y-217743D01*
X-66613Y-216135D01*
X-68580Y-215320D01*
D02*
G37*
G36*
X-71120D02*
X-73087Y-216135D01*
X-74695Y-217743D01*
X-75510Y-219710D01*
X-71120D01*
Y-215320D01*
D02*
G37*
G36*
X316292Y-204311D02*
X297522D01*
Y-223081D01*
X298225D01*
X302097Y-222311D01*
X305744Y-220800D01*
X309026Y-218607D01*
X311818Y-215816D01*
X314011Y-212534D01*
X315522Y-208887D01*
X316292Y-205015D01*
Y-204311D01*
D02*
G37*
G36*
X294982D02*
X276212D01*
Y-205015D01*
X276982Y-208887D01*
X278492Y-212534D01*
X280686Y-215816D01*
X283477Y-218607D01*
X286759Y-220800D01*
X290406Y-222311D01*
X294278Y-223081D01*
X294982D01*
Y-204311D01*
D02*
G37*
G36*
X-276211Y-204311D02*
X-294981D01*
Y-223081D01*
X-294278D01*
X-290406Y-222311D01*
X-286759Y-220800D01*
X-283477Y-218607D01*
X-280685Y-215816D01*
X-278492Y-212534D01*
X-276982Y-208887D01*
X-276211Y-205015D01*
Y-204311D01*
D02*
G37*
G36*
X-297521D02*
X-316292D01*
Y-205015D01*
X-315521Y-208887D01*
X-314011Y-212534D01*
X-311818Y-215816D01*
X-309026Y-218607D01*
X-305744Y-220800D01*
X-302097Y-222311D01*
X-298225Y-223081D01*
X-297521D01*
Y-204311D01*
D02*
G37*
G36*
X-123190Y-221670D02*
Y-226060D01*
X-118800D01*
X-119615Y-224093D01*
X-121223Y-222485D01*
X-123190Y-221670D01*
D02*
G37*
G36*
X-125730D02*
X-127697Y-222485D01*
X-129305Y-224093D01*
X-130120Y-226060D01*
X-125730D01*
Y-221670D01*
D02*
G37*
G36*
X-64190Y-222250D02*
X-68580D01*
Y-226640D01*
X-66613Y-225825D01*
X-65005Y-224217D01*
X-64190Y-222250D01*
D02*
G37*
G36*
X-71120D02*
X-75510D01*
X-74695Y-224217D01*
X-73087Y-225825D01*
X-71120Y-226640D01*
Y-222250D01*
D02*
G37*
G36*
X140238Y-226073D02*
Y-230463D01*
X144628D01*
X143813Y-228496D01*
X142206Y-226888D01*
X140238Y-226073D01*
D02*
G37*
G36*
X137698D02*
X135731Y-226888D01*
X134123Y-228496D01*
X133308Y-230463D01*
X137698D01*
Y-226073D01*
D02*
G37*
G36*
X-118800Y-228600D02*
X-123190D01*
Y-232990D01*
X-121223Y-232175D01*
X-119615Y-230567D01*
X-118800Y-228600D01*
D02*
G37*
G36*
X-125730D02*
X-130120D01*
X-129305Y-230567D01*
X-127697Y-232175D01*
X-125730Y-232990D01*
Y-228600D01*
D02*
G37*
G36*
X144628Y-233003D02*
X140238D01*
Y-237393D01*
X142206Y-236578D01*
X143813Y-234971D01*
X144628Y-233003D01*
D02*
G37*
G36*
X137698D02*
X133308D01*
X134123Y-234971D01*
X135731Y-236578D01*
X137698Y-237393D01*
Y-233003D01*
D02*
G37*
G36*
X196717Y-241935D02*
X194443D01*
X192343Y-242805D01*
X190735Y-244413D01*
X189865Y-246513D01*
Y-248787D01*
X190735Y-250887D01*
X192343Y-252495D01*
X194443Y-253365D01*
X196717D01*
X198817Y-252495D01*
X200425Y-250887D01*
X201295Y-248787D01*
Y-246513D01*
X200425Y-244413D01*
X198817Y-242805D01*
X196717Y-241935D01*
D02*
G37*
G36*
X-123323Y-262255D02*
X-125597D01*
X-127697Y-263125D01*
X-129305Y-264733D01*
X-130175Y-266833D01*
Y-269107D01*
X-129305Y-271207D01*
X-127697Y-272815D01*
X-125597Y-273685D01*
X-123323D01*
X-121223Y-272815D01*
X-119615Y-271207D01*
X-118745Y-269107D01*
Y-266833D01*
X-119615Y-264733D01*
X-121223Y-263125D01*
X-123323Y-262255D01*
D02*
G37*
G36*
X95250Y-269930D02*
Y-274320D01*
X99640D01*
X98825Y-272353D01*
X97217Y-270745D01*
X95250Y-269930D01*
D02*
G37*
G36*
X92710D02*
X90743Y-270745D01*
X89135Y-272353D01*
X88320Y-274320D01*
X92710D01*
Y-269930D01*
D02*
G37*
G36*
X99640Y-276860D02*
X95250D01*
Y-281250D01*
X97217Y-280435D01*
X98825Y-278827D01*
X99640Y-276860D01*
D02*
G37*
G36*
X92710D02*
X88320D01*
X89135Y-278827D01*
X90743Y-280435D01*
X92710Y-281250D01*
Y-276860D01*
D02*
G37*
G36*
X-26670Y-278820D02*
Y-283210D01*
X-22280D01*
X-23095Y-281243D01*
X-24703Y-279635D01*
X-26670Y-278820D01*
D02*
G37*
G36*
X-29210D02*
X-31177Y-279635D01*
X-32785Y-281243D01*
X-33600Y-283210D01*
X-29210D01*
Y-278820D01*
D02*
G37*
G36*
X48260Y-280090D02*
Y-284480D01*
X52650D01*
X51835Y-282513D01*
X50227Y-280905D01*
X48260Y-280090D01*
D02*
G37*
G36*
X45720D02*
X43753Y-280905D01*
X42145Y-282513D01*
X41330Y-284480D01*
X45720D01*
Y-280090D01*
D02*
G37*
G36*
X-22280Y-285750D02*
X-26670D01*
Y-290140D01*
X-24703Y-289325D01*
X-23095Y-287717D01*
X-22280Y-285750D01*
D02*
G37*
G36*
X-29210D02*
X-33600D01*
X-32785Y-287717D01*
X-31177Y-289325D01*
X-29210Y-290140D01*
Y-285750D01*
D02*
G37*
G36*
X52650Y-287020D02*
X48260D01*
Y-291410D01*
X50227Y-290595D01*
X51835Y-288987D01*
X52650Y-287020D01*
D02*
G37*
G36*
X45720D02*
X41330D01*
X42145Y-288987D01*
X43753Y-290595D01*
X45720Y-291410D01*
Y-287020D01*
D02*
G37*
G36*
X-44450Y-291520D02*
Y-295910D01*
X-40060D01*
X-40875Y-293943D01*
X-42483Y-292335D01*
X-44450Y-291520D01*
D02*
G37*
G36*
X-46990D02*
X-48957Y-292335D01*
X-50565Y-293943D01*
X-51380Y-295910D01*
X-46990D01*
Y-291520D01*
D02*
G37*
G36*
X-123323Y-288925D02*
X-125597D01*
X-127697Y-289795D01*
X-129305Y-291403D01*
X-130175Y-293503D01*
Y-295777D01*
X-129305Y-297877D01*
X-127697Y-299485D01*
X-125597Y-300355D01*
X-123323D01*
X-121223Y-299485D01*
X-119615Y-297877D01*
X-118745Y-295777D01*
Y-293503D01*
X-119615Y-291403D01*
X-121223Y-289795D01*
X-123323Y-288925D01*
D02*
G37*
G36*
X-40060Y-298450D02*
X-44450D01*
Y-302840D01*
X-42483Y-302025D01*
X-40875Y-300417D01*
X-40060Y-298450D01*
D02*
G37*
G36*
X-46990D02*
X-51380D01*
X-50565Y-300417D01*
X-48957Y-302025D01*
X-46990Y-302840D01*
Y-298450D01*
D02*
G37*
G36*
X-171450Y-296989D02*
Y-303530D01*
X-164909D01*
X-165383Y-301761D01*
X-166419Y-299965D01*
X-167885Y-298499D01*
X-169681Y-297463D01*
X-171450Y-296989D01*
D02*
G37*
G36*
X208280Y-299747D02*
Y-307340D01*
X215873D01*
X215294Y-305179D01*
X214124Y-303151D01*
X212469Y-301496D01*
X210441Y-300326D01*
X208280Y-299747D01*
D02*
G37*
G36*
X205740D02*
X203579Y-300326D01*
X201551Y-301496D01*
X199896Y-303151D01*
X198726Y-305179D01*
X198147Y-307340D01*
X205740D01*
Y-299747D01*
D02*
G37*
G36*
X-164909Y-306070D02*
X-171450D01*
Y-312612D01*
X-169681Y-312137D01*
X-167885Y-311101D01*
X-166419Y-309635D01*
X-165383Y-307839D01*
X-164909Y-306070D01*
D02*
G37*
G36*
X-184183Y-296926D02*
X-186257D01*
X-188259Y-297463D01*
X-190055Y-298499D01*
X-191521Y-299965D01*
X-192557Y-301761D01*
X-193094Y-303763D01*
Y-305837D01*
X-192557Y-307839D01*
X-191521Y-309635D01*
X-190055Y-311101D01*
X-188259Y-312137D01*
X-186257Y-312674D01*
X-184183D01*
X-182181Y-312137D01*
X-180385Y-311101D01*
X-178970Y-309685D01*
X-177555Y-311101D01*
X-175759Y-312137D01*
X-173990Y-312612D01*
Y-304800D01*
Y-296989D01*
X-175759Y-297463D01*
X-177555Y-298499D01*
X-178970Y-299914D01*
X-180385Y-298499D01*
X-182181Y-297463D01*
X-184183Y-296926D01*
D02*
G37*
G36*
X-235050Y-295910D02*
X-237390D01*
X-239651Y-296516D01*
X-241679Y-297686D01*
X-243334Y-299341D01*
X-244504Y-301369D01*
X-245110Y-303630D01*
Y-305970D01*
X-244504Y-308231D01*
X-243334Y-310259D01*
X-241679Y-311914D01*
X-239651Y-313084D01*
X-237390Y-313690D01*
X-235050D01*
X-232789Y-313084D01*
X-230761Y-311914D01*
X-229106Y-310259D01*
X-227936Y-308231D01*
X-227330Y-305970D01*
Y-303630D01*
X-227936Y-301369D01*
X-229106Y-299341D01*
X-230761Y-297686D01*
X-232789Y-296516D01*
X-235050Y-295910D01*
D02*
G37*
G36*
X215873Y-309880D02*
X208280D01*
Y-317473D01*
X210441Y-316894D01*
X212469Y-315724D01*
X214124Y-314069D01*
X215294Y-312041D01*
X215873Y-309880D01*
D02*
G37*
G36*
X205740D02*
X198147D01*
X198726Y-312041D01*
X199896Y-314069D01*
X201551Y-315724D01*
X203579Y-316894D01*
X205740Y-317473D01*
Y-309880D01*
D02*
G37*
G36*
X182780Y-299720D02*
X180440D01*
X178179Y-300326D01*
X176151Y-301496D01*
X174496Y-303151D01*
X173326Y-305179D01*
X172720Y-307440D01*
Y-309780D01*
X173326Y-312041D01*
X174496Y-314069D01*
X176151Y-315724D01*
X178179Y-316894D01*
X180440Y-317500D01*
X182780D01*
X185041Y-316894D01*
X187069Y-315724D01*
X188724Y-314069D01*
X189894Y-312041D01*
X190500Y-309780D01*
Y-307440D01*
X189894Y-305179D01*
X188724Y-303151D01*
X187069Y-301496D01*
X185041Y-300326D01*
X182780Y-299720D01*
D02*
G37*
G36*
X-86380Y-332988D02*
Y-342912D01*
X-79289D01*
Y-341182D01*
X-79573Y-339018D01*
X-80409Y-337001D01*
X-81738Y-335270D01*
X-83469Y-333941D01*
X-85486Y-333105D01*
X-86380Y-332988D01*
D02*
G37*
G36*
X-88920Y-332988D02*
X-89814Y-333105D01*
X-91831Y-333941D01*
X-93563Y-335270D01*
X-94891Y-337001D01*
X-95727Y-339018D01*
X-96012Y-341182D01*
Y-342912D01*
X-88920D01*
Y-332988D01*
D02*
G37*
G36*
X20D02*
Y-342912D01*
X7112D01*
Y-341182D01*
X6827Y-339018D01*
X5991Y-337001D01*
X4663Y-335270D01*
X2931Y-333941D01*
X914Y-333105D01*
X20Y-332988D01*
D02*
G37*
G36*
X-2520D02*
X-3414Y-333105D01*
X-5431Y-333941D01*
X-7162Y-335270D01*
X-8491Y-337001D01*
X-9327Y-339018D01*
X-9611Y-341182D01*
Y-342912D01*
X-2520D01*
Y-332988D01*
D02*
G37*
G36*
X76100Y-327660D02*
X73760D01*
X71499Y-328266D01*
X69471Y-329436D01*
X67816Y-331091D01*
X66646Y-333119D01*
X66040Y-335380D01*
Y-337720D01*
X66646Y-339981D01*
X67816Y-342009D01*
X69471Y-343664D01*
X71499Y-344834D01*
X73760Y-345440D01*
X76100D01*
X78361Y-344834D01*
X80389Y-343664D01*
X82044Y-342009D01*
X83214Y-339981D01*
X83820Y-337720D01*
Y-335380D01*
X83214Y-333119D01*
X82044Y-331091D01*
X80389Y-329436D01*
X78361Y-328266D01*
X76100Y-327660D01*
D02*
G37*
G36*
X137027Y-338455D02*
X134753D01*
X132653Y-339325D01*
X131045Y-340933D01*
X130175Y-343033D01*
Y-345307D01*
X131045Y-347407D01*
X132653Y-349015D01*
X134753Y-349885D01*
X137027D01*
X139127Y-349015D01*
X140735Y-347407D01*
X141605Y-345307D01*
Y-343033D01*
X140735Y-340933D01*
X139127Y-339325D01*
X137027Y-338455D01*
D02*
G37*
G36*
X-88920Y-345452D02*
X-96012D01*
Y-347182D01*
X-95727Y-349346D01*
X-94891Y-351363D01*
X-93563Y-353094D01*
X-91831Y-354423D01*
X-89814Y-355258D01*
X-88920Y-355376D01*
Y-345452D01*
D02*
G37*
G36*
X7112Y-345452D02*
X20D01*
Y-355376D01*
X914Y-355258D01*
X2931Y-354423D01*
X4663Y-353094D01*
X5991Y-351363D01*
X6827Y-349346D01*
X7112Y-347182D01*
Y-345452D01*
D02*
G37*
G36*
X-2520D02*
X-9611D01*
Y-347182D01*
X-9327Y-349346D01*
X-8491Y-351363D01*
X-7162Y-353094D01*
X-5431Y-354423D01*
X-3414Y-355258D01*
X-2520Y-355376D01*
Y-345452D01*
D02*
G37*
G36*
X-79289Y-345452D02*
X-86380D01*
Y-355376D01*
X-85486Y-355258D01*
X-83469Y-354423D01*
X-81738Y-353094D01*
X-80409Y-351363D01*
X-79573Y-349346D01*
X-79289Y-347182D01*
Y-345452D01*
D02*
G37*
G36*
X-114400Y-359410D02*
X-116740D01*
X-119001Y-360016D01*
X-121029Y-361186D01*
X-122684Y-362841D01*
X-123854Y-364869D01*
X-124460Y-367130D01*
Y-369470D01*
X-123854Y-371731D01*
X-122684Y-373759D01*
X-121029Y-375414D01*
X-119001Y-376584D01*
X-116740Y-377190D01*
X-114400D01*
X-112139Y-376584D01*
X-110111Y-375414D01*
X-108456Y-373759D01*
X-107286Y-371731D01*
X-106680Y-369470D01*
Y-367130D01*
X-107286Y-364869D01*
X-108456Y-362841D01*
X-110111Y-361186D01*
X-112139Y-360016D01*
X-114400Y-359410D01*
D02*
G37*
G36*
X114980Y-368354D02*
X112759Y-368646D01*
X110689Y-369503D01*
X108911Y-370867D01*
X107547Y-372645D01*
X106690Y-374715D01*
X106398Y-376936D01*
Y-378274D01*
X103858Y-378608D01*
X103448Y-377078D01*
X102110Y-374762D01*
X100218Y-372870D01*
X97902Y-371532D01*
X95318Y-370840D01*
X92642D01*
X90058Y-371532D01*
X87742Y-372870D01*
X85850Y-374762D01*
X85447Y-375461D01*
X82514D01*
X82110Y-374762D01*
X80218Y-372870D01*
X77902Y-371532D01*
X75318Y-370840D01*
X72642D01*
X70058Y-371532D01*
X67742Y-372870D01*
X65850Y-374762D01*
X65447Y-375461D01*
X62513D01*
X62110Y-374762D01*
X60218Y-372870D01*
X57902Y-371532D01*
X55318Y-370840D01*
X52642D01*
X50058Y-371532D01*
X47742Y-372870D01*
X45850Y-374762D01*
X44512Y-377078D01*
X44102Y-378608D01*
X41562Y-378274D01*
Y-376936D01*
X41270Y-374715D01*
X40413Y-372645D01*
X39049Y-370867D01*
X37271Y-369503D01*
X35201Y-368646D01*
X32980Y-368354D01*
X30759Y-368646D01*
X28689Y-369503D01*
X26911Y-370867D01*
X25547Y-372645D01*
X24690Y-374715D01*
X24397Y-376936D01*
Y-385064D01*
X24690Y-387285D01*
X25547Y-389355D01*
X26911Y-391133D01*
X28689Y-392497D01*
X30759Y-393354D01*
X32980Y-393646D01*
X35201Y-393354D01*
X37271Y-392497D01*
X39049Y-391133D01*
X40413Y-389355D01*
X41270Y-387285D01*
X41562Y-385064D01*
Y-383726D01*
X44102Y-383392D01*
X44512Y-384922D01*
X45850Y-387238D01*
X47742Y-389130D01*
X50058Y-390468D01*
X52642Y-391160D01*
X55318D01*
X57902Y-390468D01*
X60218Y-389130D01*
X62110Y-387238D01*
X62513Y-386539D01*
X65447D01*
X65850Y-387238D01*
X67742Y-389130D01*
X70058Y-390468D01*
X72642Y-391160D01*
X75318D01*
X77902Y-390468D01*
X80218Y-389130D01*
X82110Y-387238D01*
X82514Y-386539D01*
X85447D01*
X85850Y-387238D01*
X87742Y-389130D01*
X90058Y-390468D01*
X92642Y-391160D01*
X95318D01*
X97902Y-390468D01*
X100218Y-389130D01*
X102110Y-387238D01*
X103448Y-384922D01*
X103858Y-383392D01*
X106398Y-383726D01*
Y-385064D01*
X106690Y-387285D01*
X107547Y-389355D01*
X108911Y-391133D01*
X110689Y-392497D01*
X112759Y-393354D01*
X114980Y-393646D01*
X117201Y-393354D01*
X119271Y-392497D01*
X121049Y-391133D01*
X122413Y-389355D01*
X123270Y-387285D01*
X123562Y-385064D01*
Y-376936D01*
X123270Y-374715D01*
X122413Y-372645D01*
X121049Y-370867D01*
X119271Y-369503D01*
X117201Y-368646D01*
X114980Y-368354D01*
D02*
G37*
G36*
X20Y-370988D02*
Y-380912D01*
X7112D01*
Y-379182D01*
X6827Y-377018D01*
X5992Y-375001D01*
X4663Y-373270D01*
X2931Y-371941D01*
X914Y-371105D01*
X20Y-370988D01*
D02*
G37*
G36*
X-86380D02*
Y-380912D01*
X-79289D01*
Y-379182D01*
X-79574Y-377018D01*
X-80409Y-375001D01*
X-81738Y-373270D01*
X-83470Y-371941D01*
X-85486Y-371105D01*
X-86380Y-370988D01*
D02*
G37*
G36*
X-88920D02*
X-89815Y-371105D01*
X-91831Y-371941D01*
X-93563Y-373270D01*
X-94892Y-375001D01*
X-95727Y-377018D01*
X-96012Y-379182D01*
Y-380912D01*
X-88920D01*
Y-370988D01*
D02*
G37*
G36*
X-2520D02*
X-3414Y-371105D01*
X-5430Y-371941D01*
X-7162Y-373270D01*
X-8491Y-375001D01*
X-9326Y-377018D01*
X-9611Y-379182D01*
Y-380912D01*
X-2520D01*
Y-370988D01*
D02*
G37*
G36*
X-114300Y-384837D02*
Y-392430D01*
X-106707D01*
X-107286Y-390269D01*
X-108456Y-388241D01*
X-110111Y-386586D01*
X-112139Y-385416D01*
X-114300Y-384837D01*
D02*
G37*
G36*
X-116840D02*
X-119001Y-385416D01*
X-121029Y-386586D01*
X-122684Y-388241D01*
X-123854Y-390269D01*
X-124433Y-392430D01*
X-116840D01*
Y-384837D01*
D02*
G37*
G36*
X7112Y-383452D02*
X20D01*
Y-393376D01*
X914Y-393259D01*
X2931Y-392423D01*
X4663Y-391095D01*
X5992Y-389363D01*
X6827Y-387346D01*
X7112Y-385182D01*
Y-383452D01*
D02*
G37*
G36*
X-79289D02*
X-86380D01*
Y-393376D01*
X-85486Y-393259D01*
X-83470Y-392423D01*
X-81738Y-391095D01*
X-80409Y-389363D01*
X-79574Y-387346D01*
X-79289Y-385182D01*
Y-383452D01*
D02*
G37*
G36*
X-88920D02*
X-96012D01*
Y-385182D01*
X-95727Y-387346D01*
X-94892Y-389363D01*
X-93563Y-391095D01*
X-91831Y-392423D01*
X-89815Y-393259D01*
X-88920Y-393376D01*
Y-383452D01*
D02*
G37*
G36*
X-2520D02*
X-9611D01*
Y-385182D01*
X-9326Y-387346D01*
X-8491Y-389363D01*
X-7162Y-391095D01*
X-5430Y-392423D01*
X-3414Y-393259D01*
X-2520Y-393376D01*
Y-383452D01*
D02*
G37*
G36*
X-106707Y-394970D02*
X-114300D01*
Y-402563D01*
X-112139Y-401984D01*
X-110111Y-400814D01*
X-108456Y-399159D01*
X-107286Y-397131D01*
X-106707Y-394970D01*
D02*
G37*
G36*
X-116840D02*
X-124433D01*
X-123854Y-397131D01*
X-122684Y-399159D01*
X-121029Y-400814D01*
X-119001Y-401984D01*
X-116840Y-402563D01*
Y-394970D01*
D02*
G37*
%LPD*%
D61*
X-91440Y135890D02*
D03*
X189230Y-58420D02*
D03*
X-230505Y-65405D02*
D03*
X207010Y-308610D02*
D03*
X181610D02*
D03*
X-288290Y52070D02*
D03*
X285750Y49530D02*
D03*
X-38100Y2540D02*
D03*
X38100Y27940D02*
D03*
X12700D02*
D03*
X-12700D02*
D03*
X-38100D02*
D03*
X110490Y22860D02*
D03*
X85090D02*
D03*
X74930Y-336550D02*
D03*
X-115570Y-393700D02*
D03*
Y-368300D02*
D03*
X-236220Y-304800D02*
D03*
X38100Y289560D02*
D03*
X63500D02*
D03*
D69*
X-1250Y-344182D02*
D03*
X-87650Y-382182D02*
D03*
X-1250D02*
D03*
X-87650Y-344182D02*
D03*
D70*
X124460Y247650D02*
D03*
X111760D02*
D03*
X124460Y234950D02*
D03*
X111760D02*
D03*
X124460Y222250D02*
D03*
X111760D02*
D03*
X124460Y209550D02*
D03*
X111760D02*
D03*
X124460Y196850D02*
D03*
X111760D02*
D03*
X124460Y184150D02*
D03*
X111760D02*
D03*
X124460Y171450D02*
D03*
X111760D02*
D03*
D71*
X-185220Y-304800D02*
D03*
X-172720D02*
D03*
D74*
X296252Y210455D02*
D03*
X296252Y-203041D02*
D03*
X-296252Y210455D02*
D03*
X-296252Y-203041D02*
D03*
D75*
X149860Y201930D02*
D03*
X185420Y144780D02*
D03*
X149860Y181610D02*
D03*
Y234950D02*
D03*
X135890Y-344170D02*
D03*
X124460Y-203200D02*
D03*
X36830Y66040D02*
D03*
X45720Y114300D02*
D03*
X17780Y105410D02*
D03*
X-23891Y64770D02*
D03*
X-57150Y124460D02*
D03*
X163830Y28575D02*
D03*
X-73660Y92710D02*
D03*
X-49530Y81280D02*
D03*
X-288290Y151130D02*
D03*
X-69850Y-220980D02*
D03*
X219710Y245110D02*
D03*
X175260Y62230D02*
D03*
X3810Y-22860D02*
D03*
X40640Y130810D02*
D03*
X138968Y-231733D02*
D03*
X204470Y50800D02*
D03*
X256540Y33020D02*
D03*
X-209550Y44450D02*
D03*
X38100Y7620D02*
D03*
X82550Y309880D02*
D03*
X-80010Y157574D02*
D03*
X36830Y163830D02*
D03*
X-332740Y143510D02*
D03*
X-339090Y36830D02*
D03*
X165100Y-26670D02*
D03*
X-293370Y-22860D02*
D03*
X-45720Y-297180D02*
D03*
X-27940Y-284480D02*
D03*
X195580Y-247650D02*
D03*
X266700Y-142240D02*
D03*
X320040Y-31750D02*
D03*
X196850Y184150D02*
D03*
X124460Y294640D02*
D03*
X-267970Y-76200D02*
D03*
X-335280Y19050D02*
D03*
X-267970Y140970D02*
D03*
X-195580Y250190D02*
D03*
X-140970Y341630D02*
D03*
X46990Y-285750D02*
D03*
X-105410Y224790D02*
D03*
Y210820D02*
D03*
X-102870Y194310D02*
D03*
X-74930Y238760D02*
D03*
X-88900Y256540D02*
D03*
X-71120Y261620D02*
D03*
X-90170Y173355D02*
D03*
X-53340Y146050D02*
D03*
X40640Y148590D02*
D03*
X58420Y227330D02*
D03*
Y242570D02*
D03*
X44450Y213360D02*
D03*
X85090Y241300D02*
D03*
X16510Y294640D02*
D03*
X-81280Y306070D02*
D03*
X-41910Y292100D02*
D03*
X-68580Y314960D02*
D03*
X7620Y306070D02*
D03*
X-1270Y314960D02*
D03*
X-8890Y325120D02*
D03*
X-238760Y53340D02*
D03*
X16510Y-54610D02*
D03*
X33020D02*
D03*
X281940Y88900D02*
D03*
X-124460Y-227330D02*
D03*
X102362Y-165100D02*
D03*
X93980Y-275590D02*
D03*
X-124460Y-267970D02*
D03*
X-201930Y-100330D02*
D03*
X-175260D02*
D03*
X-240030Y-85090D02*
D03*
X-175260D02*
D03*
X-188347Y83820D02*
D03*
X-172729Y41307D02*
D03*
X-240030Y83820D02*
D03*
X-228600Y66040D02*
D03*
X-114300Y285750D02*
D03*
X76200Y205740D02*
D03*
X-17780Y283210D02*
D03*
X17780Y264160D02*
D03*
X27940Y256540D02*
D03*
X-26670Y332740D02*
D03*
X-38100Y341630D02*
D03*
X-22860Y-23150D02*
D03*
X234950Y54610D02*
D03*
X256540Y-25400D02*
D03*
X-158750Y-33020D02*
D03*
X331470Y143510D02*
D03*
X340360Y39370D02*
D03*
X-195580Y-185420D02*
D03*
X-124460Y-294640D02*
D03*
X-250190Y12700D02*
D03*
X-247650Y-34290D02*
D03*
D76*
X114980Y-381000D02*
D03*
X32980D02*
D03*
D77*
X53980D02*
D03*
X73980D02*
D03*
X93980D02*
D03*
M02*
