G04*
G04 #@! TF.GenerationSoftware,Altium Limited,Altium Designer,24.6.1 (21)*
G04*
G04 Layer_Physical_Order=1*
G04 Layer_Color=255*
%FSLAX44Y44*%
%MOMM*%
G71*
G04*
G04 #@! TF.SameCoordinates,52A8A81B-FF2B-4EC6-89A9-BAFCCA1C575D*
G04*
G04*
G04 #@! TF.FilePolarity,Positive*
G04*
G01*
G75*
%ADD10C,0.2540*%
%ADD11C,0.1524*%
%ADD12R,0.5334X0.3048*%
%ADD13R,0.3048X0.5334*%
%ADD14R,0.3000X0.2300*%
%ADD15R,0.3556X1.3081*%
%ADD16R,1.2446X2.0574*%
%ADD17R,0.7620X0.2921*%
%ADD18R,0.8128X1.1938*%
%ADD19R,1.4732X0.2997*%
%ADD20R,0.2997X1.4732*%
%ADD21R,0.8992X0.8128*%
%ADD22R,1.0000X0.9500*%
%ADD23R,1.3000X1.2192*%
%ADD24R,1.3208X0.5080*%
%ADD25R,1.1064X0.4664*%
%ADD26R,1.7500X2.0320*%
%ADD27R,0.8382X0.9600*%
%ADD28R,0.9600X0.8382*%
%ADD29R,1.0160X1.2000*%
%ADD30R,2.2098X1.1684*%
%ADD31R,0.9500X1.0000*%
%ADD32R,1.1500X0.7500*%
%ADD33R,0.8128X0.8992*%
%ADD34R,0.7500X1.1500*%
%ADD60C,1.2700*%
%ADD65C,0.6350*%
%ADD66C,0.3810*%
%ADD67C,0.1778*%
%ADD68O,1.1500X1.7500*%
%ADD69C,1.1684*%
%ADD70C,1.0668*%
%ADD71O,1.0160X1.8288*%
%ADD72C,1.3462*%
%ADD73C,3.5000*%
%ADD74C,0.6350*%
D10*
X-81280Y-128270D02*
Y137844D01*
Y-128270D02*
X33020Y-242570D01*
X185420Y49530D02*
Y144780D01*
Y49530D02*
X193150Y41800D01*
X160020Y185420D02*
Y245110D01*
X196850Y44450D02*
Y148590D01*
X160020Y185420D02*
X196850Y148590D01*
X95250Y309880D02*
X160020Y245110D01*
X95250Y309880D02*
Y318135D01*
X134620Y-251663D02*
Y-242570D01*
X109982Y-237200D02*
X129250D01*
X134620Y-242570D01*
X135090Y-344170D02*
X135890D01*
X123720Y-340360D02*
X131280D01*
X121920Y-261620D02*
Y-261188D01*
X131280Y-340360D02*
X135090Y-344170D01*
X96520Y-316865D02*
Y-303530D01*
X148590Y-251460D01*
X-39370Y80010D02*
X-25894Y66534D01*
X-39370Y93980D02*
X-18956Y114395D01*
X-39370Y80010D02*
Y93980D01*
X-18956Y114395D02*
Y151674D01*
X36830Y66040D02*
Y66870D01*
X18750Y84950D02*
Y86360D01*
X-19050Y86660D02*
X-18750Y86360D01*
X-12497Y105410D02*
X-12065D01*
X110490Y22860D02*
Y35560D01*
X2260Y143790D02*
X110490Y35560D01*
X2260Y143790D02*
Y159258D01*
X-7740Y141090D02*
X85090Y48260D01*
X-49530Y80531D02*
X2540Y28461D01*
X-49530Y80531D02*
Y81280D01*
X2540Y28461D02*
X12179D01*
X12700Y27940D01*
X-25655Y66534D02*
X-23891Y64770D01*
X-25894Y66534D02*
X-25655D01*
X-57150Y124460D02*
X-37740Y143870D01*
Y159258D01*
X174651Y31750D02*
X186142D01*
X167078Y26281D02*
X169182D01*
X174651Y31750D01*
X164784Y28575D02*
X167078Y26281D01*
X163830Y28575D02*
X164784D01*
X-18956Y151674D02*
X-18955Y151674D01*
Y152175D01*
X-17740Y153391D01*
Y159258D01*
X-73660Y92710D02*
X-32740Y133630D01*
X-81280Y137844D02*
X-46772Y172352D01*
X-58420Y85090D02*
X-22969Y120541D01*
X-58420Y64770D02*
Y85090D01*
Y64770D02*
X-21590Y27940D01*
X-22969Y120541D02*
Y159029D01*
X-32740Y133630D02*
Y159258D01*
X-21590Y27940D02*
X-12700D01*
X-5000Y20240D01*
X-67310Y57150D02*
Y87630D01*
Y57150D02*
X-38100Y27940D01*
X-67310Y87630D02*
X-27740Y127200D01*
Y159258D01*
X-22969Y159029D02*
X-22740Y159258D01*
X-46772Y172352D02*
Y182662D01*
X-38100Y27940D02*
X-17660Y7500D01*
X33020Y-269240D02*
Y-242570D01*
X-91440Y135890D02*
X-57912Y169418D01*
Y174430D01*
X-307975Y51995D02*
X-288365D01*
X-288290Y52070D02*
Y151130D01*
X-49240Y-279320D02*
Y-276530D01*
X-53220Y-273050D02*
X-52720D01*
X-49240Y-279320D02*
X-45804Y-282756D01*
X-52720Y-273050D02*
X-49240Y-276530D01*
X-59450Y-352820D02*
Y-296401D01*
X-45804Y-282756D01*
X-78232Y-257150D02*
X-76962Y-258420D01*
Y-258862D02*
Y-258420D01*
X-75474Y-260350D02*
X-65670D01*
X-82296Y-257150D02*
X-78232D01*
X-76962Y-258862D02*
X-75474Y-260350D01*
X-65670D02*
X-56700Y-269320D01*
Y-269570D02*
X-53220Y-273050D01*
X-56700Y-269570D02*
Y-269320D01*
X15750Y-254290D02*
Y-239790D01*
X-15750D02*
X15750D01*
X-34261Y-254290D02*
X-15750D01*
X-49240Y-269570D02*
Y-269270D01*
X-52670Y-273000D02*
X-49240Y-269570D01*
Y-269270D02*
X-34261Y-254290D01*
X-51686Y-205855D02*
X-17750Y-239790D01*
X-15750D01*
X-84340Y-205855D02*
X-51686D01*
X-72151Y-219710D02*
X-70881Y-220980D01*
X-69850D01*
X16510Y-285750D02*
X33020Y-269240D01*
X219430Y33110D02*
Y244830D01*
X219710Y245110D01*
X219150Y32829D02*
X219430Y33110D01*
X219150Y17064D02*
Y32829D01*
X168910Y194310D02*
Y207645D01*
X212650Y32829D02*
Y150570D01*
X168910Y194310D02*
X212650Y150570D01*
X193150Y32829D02*
Y41800D01*
Y7314D02*
Y32829D01*
X175260Y46990D02*
Y62230D01*
X196850Y44450D02*
X199142Y42158D01*
X-8281Y-39370D02*
X3620Y-27469D01*
Y-22019D02*
X3810Y-21829D01*
X3620Y-27469D02*
Y-22019D01*
X-10160Y-23150D02*
X-9400Y-22390D01*
Y-17617D02*
X-5254Y-13471D01*
Y-9779D02*
X-5000Y-9525D01*
X-9400Y-22390D02*
Y-17617D01*
X-5254Y-13471D02*
Y-9779D01*
X-10160Y-24130D02*
Y-23150D01*
Y-39370D02*
X-8281D01*
X0Y-18019D02*
X3810Y-21829D01*
X0Y-18019D02*
Y-9525D01*
X121347Y-242200D02*
X124460Y-245313D01*
X109982Y-242200D02*
X121347D01*
X124460Y-245745D02*
Y-245313D01*
X39609Y130810D02*
X40640D01*
X25400Y133350D02*
X37069D01*
X39609Y130810D01*
X124460Y-261823D02*
X134620Y-251663D01*
X110087Y-232305D02*
X138397D01*
X138968Y-231733D01*
X102743Y-232200D02*
X109982D01*
X110087Y-232305D01*
X87948Y-227200D02*
X91628Y-223520D01*
X103953D01*
X107633Y-227200D01*
X109982D01*
X85598D02*
X87948D01*
X206150Y32829D02*
Y37592D01*
X204470Y39272D02*
X206150Y37592D01*
X204470Y39272D02*
Y50800D01*
X245150Y32829D02*
X256350D01*
X256540Y33020D01*
X284480Y1905D02*
Y20320D01*
X261620Y43180D02*
X284480Y20320D01*
X240138Y43180D02*
X261620D01*
X-209550Y43419D02*
X-207870Y41739D01*
X-209550Y43419D02*
Y44450D01*
X-207870Y25210D02*
Y41739D01*
X-207010Y60960D02*
X-201295Y55245D01*
Y36477D02*
Y55245D01*
X-207010Y60960D02*
Y156210D01*
X-231140Y-66040D02*
X-230505Y-65405D01*
Y-49530D01*
X-227370Y-32829D02*
Y7580D01*
Y-37592D02*
Y-32829D01*
X-231140Y-48895D02*
X-230505Y-48260D01*
X12125Y7560D02*
X38040D01*
X38100Y7620D01*
X12065Y7500D02*
X12125Y7560D01*
X-12065Y-2500D02*
X-2580D01*
X-254Y-9271D02*
Y-4826D01*
X-2580Y-2500D02*
X-254Y-4826D01*
X-85090Y-219710D02*
X-72151D01*
X67945Y309880D02*
X82550D01*
X37324Y168134D02*
X39370Y170180D01*
X37324Y164324D02*
Y168134D01*
X39370Y170180D02*
Y179590D01*
X36830Y163830D02*
X37324Y164324D01*
X27661Y184201D02*
X34758D01*
X35745Y183215D02*
X39370Y179590D01*
X35745Y183215D02*
X35745D01*
X34758Y184201D02*
X35745Y183215D01*
X-80010Y157574D02*
X-79281Y158303D01*
Y165159D01*
X27432Y184430D02*
X27661Y184201D01*
X-332740Y124780D02*
Y143510D01*
X-309037Y51920D02*
X-307975Y50858D01*
X-311023Y51920D02*
X-309037D01*
X-307975Y36830D02*
Y50858D01*
X-339090Y36830D02*
X-324485D01*
X170180Y-41910D02*
Y-31750D01*
X165100Y-26670D02*
X170180Y-31750D01*
X-230505Y-39588D02*
X-229017Y-38100D01*
X-227878D01*
X-227370Y-37592D01*
X-230505Y-48260D02*
Y-39588D01*
X-293370Y-22860D02*
Y-8255D01*
X124460Y-262255D02*
Y-261823D01*
Y-262687D02*
Y-262255D01*
X109982Y-247200D02*
X112332D01*
X115570Y-250438D01*
Y-252933D02*
Y-250438D01*
Y-252933D02*
X124460Y-261823D01*
X-71120Y-364490D02*
X-59450Y-352820D01*
X-109011Y-364490D02*
X-71120D01*
X-45720Y-297180D02*
X-39370Y-303530D01*
Y-311785D02*
Y-303530D01*
X-50800Y-311785D02*
Y-302260D01*
X-45720Y-297180D01*
X-45804Y-282756D02*
X-29450Y-299110D01*
Y-343092D02*
Y-299110D01*
X-38470Y-280300D02*
Y-273050D01*
X-34290Y-284480D02*
X-27940D01*
X-38470Y-280300D02*
X-34290Y-284480D01*
X195580Y-247650D02*
X195845Y-247385D01*
Y-231405D01*
X266965Y-141975D02*
Y-124475D01*
X266700Y-142240D02*
X266965Y-141975D01*
X320305Y-31485D02*
Y-15505D01*
X320040Y-31750D02*
X320305Y-31485D01*
X196593Y184407D02*
X196850Y184150D01*
X196593Y184407D02*
Y201131D01*
X196337Y201388D02*
X196593Y201131D01*
X123720Y309880D02*
X124090Y309510D01*
Y295010D02*
Y309510D01*
Y295010D02*
X124460Y294640D01*
X-267970Y-91690D02*
Y-76200D01*
X-331459Y16260D02*
X-321310D01*
X-334249Y19050D02*
X-331459Y16260D01*
X-335280Y19050D02*
X-334249D01*
X-267970Y124210D02*
Y140970D01*
X-218440Y242570D02*
X-163830Y297180D01*
X-218440Y39370D02*
Y242570D01*
X-163830Y297180D02*
X-106680D01*
X-195580Y233430D02*
Y250190D01*
X-124710Y341630D02*
X-124460Y341380D01*
X-140970Y341630D02*
X-124710D01*
X46990Y-293370D02*
Y-285750D01*
X40500Y-299860D02*
X46990Y-293370D01*
X31750Y-285750D02*
X46990D01*
X32895Y-299860D02*
X40500D01*
X-105410Y224790D02*
X-90170D01*
X-105410Y210820D02*
X-91440D01*
X-99299Y196850D02*
X-71596D01*
X-101839Y194310D02*
X-99299Y196850D01*
X-71596D02*
X-69176Y194430D01*
X-101839Y194310D02*
X-96683Y189154D01*
X-91364D01*
X-90170Y187960D01*
X-102870Y194310D02*
X-101839D01*
X-72401Y204481D02*
X-67579Y199659D01*
X-74930Y224790D02*
Y238760D01*
X-67579Y199659D02*
X-58141D01*
X-74930Y210820D02*
Y224790D01*
Y210820D02*
X-72401Y208291D01*
Y204481D02*
Y208291D01*
X-58141Y199659D02*
X-57912Y199430D01*
X-59032Y229430D02*
X-57912D01*
X-59261Y229659D02*
X-59032Y229430D01*
X-59261Y229659D02*
Y233251D01*
X-82550Y256540D02*
X-59261Y233251D01*
X-88900Y256540D02*
X-82550D01*
X-71120Y261620D02*
X-70391Y260891D01*
Y255811D02*
Y260891D01*
Y255811D02*
X-49530Y234950D01*
X-71120Y261620D02*
X-57150D01*
X-90170Y173355D02*
X-89535Y172720D01*
X-82550D01*
X-79281Y165159D02*
X-66225Y178215D01*
X-82550Y172720D02*
X-74930Y180340D01*
Y187960D01*
X-64995Y178215D02*
X-63779Y179430D01*
X-57912D01*
X-66225Y178215D02*
X-64995D01*
X-47752Y159258D02*
X-42740D01*
X-53340Y146050D02*
Y153670D01*
X-47752Y159258D01*
X7489Y151261D02*
X21870Y136880D01*
X7489Y151261D02*
Y159029D01*
X7260Y159258D02*
X7489Y159029D01*
X24791Y133350D02*
X25400D01*
X21870Y136271D02*
X24791Y133350D01*
X21870Y136271D02*
Y136880D01*
X16081Y157909D02*
X21870Y152120D01*
X12489Y157909D02*
X16081D01*
X12260Y158138D02*
X12489Y157909D01*
X12260Y158138D02*
Y159258D01*
X24791Y148590D02*
X25400D01*
X21870Y151511D02*
X24791Y148590D01*
X21870Y151511D02*
Y152120D01*
X25400Y148590D02*
X40640D01*
X44450Y227330D02*
X58420D01*
X34290Y242570D02*
X58420D01*
X27661Y219201D02*
X38609D01*
X44450Y213360D01*
X48220Y204430D02*
X85090Y241300D01*
X27432Y204430D02*
X48220D01*
X102108Y251648D02*
X107762Y257302D01*
X102108Y246888D02*
Y251648D01*
X54650Y199430D02*
X102108Y246888D01*
X27432Y199430D02*
X54650D01*
X107762Y257302D02*
X115758D01*
X41550Y224430D02*
X44450Y227330D01*
X16510Y278130D02*
Y294640D01*
X-2740Y258880D02*
X16510Y278130D01*
X-81280Y305435D02*
Y306070D01*
X-137160Y249555D02*
X-81280Y305435D01*
X-57150Y263551D02*
Y277760D01*
X-49530Y234950D02*
X-39806D01*
X-42280Y278130D02*
X-41910Y278500D01*
Y292100D01*
X-68580Y302260D02*
Y314960D01*
X-124460Y185420D02*
Y246380D01*
X-68580Y302260D01*
X-137160Y190500D02*
Y249555D01*
X7620Y278130D02*
Y306070D01*
X-1270Y278130D02*
Y314960D01*
X-12740Y266660D02*
X-1270Y278130D01*
X-8890Y279400D02*
Y325120D01*
X-238760Y39370D02*
Y53340D01*
X16510Y-22570D02*
Y-10802D01*
X13208Y-7500D02*
X16510Y-10802D01*
X12065Y-7500D02*
X13208D01*
X16510Y-54610D02*
Y-39842D01*
X33020Y-54610D02*
Y-39588D01*
X16510Y-39842D02*
X17272Y-39080D01*
X277099Y92710D02*
X280909Y88900D01*
X281940D01*
X267230Y92710D02*
X277099D01*
X-124460Y-240400D02*
Y-227330D01*
Y-240650D02*
X-117460Y-247650D01*
X-124460Y-240650D02*
Y-240400D01*
X-117460Y-247650D02*
X-108204D01*
X84582Y-212090D02*
X85598Y-213106D01*
X85344Y-178308D02*
X85852Y-177800D01*
X97790Y-237153D02*
X102743Y-232200D01*
X97790Y-237200D02*
Y-237153D01*
X85598Y-237200D02*
X97790D01*
X85598Y-260604D02*
X86614Y-261620D01*
X-148590Y-255905D02*
X-99746Y-304749D01*
X-96520Y-307975D02*
Y-307543D01*
X-148590Y-255905D02*
Y-127000D01*
X-99314Y-304749D02*
X-96520Y-307543D01*
X-99746Y-304749D02*
X-99314D01*
X-110490Y-214833D02*
X-101397Y-205740D01*
X-109220Y-238150D02*
X-108204D01*
X-110490Y-236880D02*
X-109220Y-238150D01*
X-110490Y-236880D02*
Y-214833D01*
X-101397Y-205740D02*
X-100965D01*
X-101600Y-227772D02*
X-91222Y-238150D01*
X-101600Y-227772D02*
Y-219710D01*
X-91222Y-238150D02*
X-82296D01*
X-84455Y-205740D02*
X-84340Y-205855D01*
X-115570Y-368300D02*
X-112821D01*
X-109011Y-364490D01*
X-72682Y-343892D02*
X-71882Y-343092D01*
X-87650Y-343892D02*
X-72682D01*
X-16218D02*
X-1250D01*
X-17018Y-343092D02*
X-16218Y-343892D01*
X-39450Y-343092D02*
Y-328375D01*
X-39370Y-328295D01*
X-50800D02*
X-49450Y-329645D01*
Y-343092D02*
Y-329645D01*
X-201930Y-100330D02*
X-201650Y-100050D01*
Y-33110D01*
X-201370Y-32829D01*
X-175260Y-100330D02*
X-148590Y-127000D01*
X-170434Y-202311D02*
Y-128958D01*
Y-202311D02*
X-167640Y-205105D01*
X-188370Y-111022D02*
Y-32829D01*
Y-111022D02*
X-170434Y-128958D01*
X-240030Y-99695D02*
Y-85090D01*
X-175315Y-85035D02*
Y-32885D01*
X-175370Y-32829D02*
X-175315Y-32885D01*
Y-85035D02*
X-175260Y-85090D01*
X-165100Y33546D02*
Y144780D01*
X-124460Y185420D01*
X-195332Y25672D02*
Y150108D01*
X-148590Y196850D02*
Y251460D01*
X-195332Y150108D02*
X-148590Y196850D01*
X-167640Y195580D02*
Y208915D01*
X-207010Y156210D02*
X-167640Y195580D01*
X-179070Y49530D02*
Y148590D01*
X-181870Y46730D02*
X-179070Y49530D01*
Y148590D02*
X-137160Y190500D01*
X-181870Y25210D02*
Y46730D01*
X-194870Y9444D02*
Y25210D01*
X-195332Y25672D02*
X-194870Y25210D01*
X-188165Y25415D02*
Y83638D01*
X-188347Y83820D02*
X-188165Y83638D01*
X-172729Y40276D02*
Y41307D01*
X-175370Y37636D02*
X-172729Y40276D01*
X-168870Y29972D02*
X-168362Y30480D01*
X-168166D02*
X-165100Y33546D01*
X-168362Y30480D02*
X-168166D01*
X-175370Y25210D02*
Y37636D01*
X-181870Y9444D02*
Y25210D01*
X-240030Y83820D02*
Y99695D01*
X-188370Y25210D02*
X-188165Y25415D01*
X-168870Y9444D02*
Y29972D01*
X-106680Y297180D02*
X-96520Y307340D01*
Y318135D01*
X-214370Y25210D02*
Y35300D01*
X-218440Y39370D02*
X-214370Y35300D01*
X-228600Y39370D02*
X-221378Y32148D01*
X-228600Y39370D02*
Y66040D01*
X-221378Y25717D02*
Y32148D01*
Y25717D02*
X-220870Y25210D01*
X-201370D02*
Y36402D01*
X-201295Y36477D01*
X-148590Y251460D02*
X-114300Y285750D01*
X-42280Y264530D02*
Y278130D01*
X-38100Y302260D02*
X-32740Y296900D01*
Y244602D02*
Y296900D01*
X-38100Y302260D02*
Y341630D01*
X-220980Y25099D02*
X-220870Y25210D01*
X76200Y205740D02*
X104300Y233840D01*
X110650D02*
X111760Y234950D01*
X104300Y233840D02*
X110650D01*
X-69176Y194430D02*
X-57912D01*
X-73460Y189430D02*
X-57912D01*
X-74930Y187960D02*
X-73460Y189430D01*
X-14780Y95250D02*
X-14605D01*
X27432Y194430D02*
X27661Y194201D01*
X52070Y-313690D02*
X74930Y-336550D01*
X33020Y-313690D02*
X52070D01*
X16510Y-312420D02*
Y-299984D01*
X16385Y-299860D02*
X16510Y-299984D01*
X16385Y-299860D02*
X16510Y-299735D01*
Y-287020D01*
X-48311Y184201D02*
X-46772Y182662D01*
X-57683Y184201D02*
X-48311D01*
X-57912Y184430D02*
X-57683Y184201D01*
X-39806Y234950D02*
X-37969Y236787D01*
Y244373D01*
X-37740Y244602D01*
X-57150Y277760D02*
X-56780Y278130D01*
X-42280Y264530D02*
X-41910Y264160D01*
X-42740Y244602D02*
Y263330D01*
X-41910Y264160D01*
X85090Y22860D02*
Y48260D01*
X-7740Y141090D02*
Y159258D01*
X38100Y289560D02*
X50800Y302260D01*
Y309245D02*
X51435Y309880D01*
X50800Y302260D02*
Y309245D01*
X-22740Y278250D02*
X-17780Y283210D01*
X-22740Y244602D02*
Y278250D01*
X-12740Y244602D02*
Y266660D01*
X-7740Y262770D02*
X7620Y278130D01*
X-7740Y244602D02*
Y262770D01*
X-17511Y270779D02*
X-8890Y279400D01*
X-17511Y244831D02*
Y270779D01*
X-2740Y244602D02*
Y258880D01*
X17145Y263525D02*
X17780Y264160D01*
X10795Y263525D02*
X17145D01*
X2260Y254990D02*
X10795Y263525D01*
X16081Y244681D02*
X27940Y256540D01*
X2260Y244602D02*
Y254990D01*
X12339Y244681D02*
X16081D01*
X12260Y244602D02*
X12339Y244681D01*
X-27740Y244602D02*
Y329347D01*
X-27399Y332011D02*
X-26670Y332740D01*
X-27740Y329347D02*
X-27399Y329688D01*
Y332011D01*
X-17740Y244602D02*
X-17511Y244831D01*
X340360Y39370D02*
Y51587D01*
X332257Y59690D02*
X340360Y51587D01*
X329057Y59690D02*
X332257D01*
X226158Y39051D02*
X226695Y39588D01*
Y85928D01*
X225650Y32829D02*
X226158Y33338D01*
Y39051D01*
X226695Y85928D02*
X240030Y99263D01*
X33020Y-39588D02*
X33528Y-39080D01*
X31750Y-37302D02*
X33528Y-39080D01*
X31750Y-37302D02*
Y-23840D01*
X16510Y-38318D02*
X17272Y-39080D01*
X16510Y-38318D02*
Y-23840D01*
X-22860Y-23150D02*
X-11140D01*
X27940Y17780D02*
X38100Y27940D01*
X5000Y9525D02*
Y10668D01*
X12112Y17780D01*
X27940D01*
X0Y15240D02*
X12700Y27940D01*
X0Y9525D02*
Y15240D01*
X-5000Y9525D02*
Y20240D01*
X-17660Y7500D02*
X-12065D01*
X12065Y2500D02*
Y7500D01*
X0Y-9525D02*
X5000D01*
X-254Y-9271D02*
X0Y-9525D01*
X-12065Y-2500D02*
Y2500D01*
X-28060Y-7500D02*
X-12065D01*
X-38100Y2540D02*
X-28060Y-7500D01*
X27432Y219430D02*
X27661Y219201D01*
X124460Y247650D02*
Y248600D01*
X115758Y257302D02*
X124460Y248600D01*
X27940Y236220D02*
X34290Y242570D01*
X27432Y229430D02*
X27711D01*
X27940Y229659D01*
Y236220D01*
X27432Y224430D02*
X41550D01*
X234950Y53579D02*
Y54610D01*
X232150Y32829D02*
Y50779D01*
X234950Y53579D01*
X245340Y-25400D02*
X256540D01*
X245150Y-25210D02*
X245340Y-25400D01*
X148590Y-194310D02*
X212650Y-130250D01*
X148590Y-251460D02*
Y-194310D01*
X212650Y-130250D02*
Y-25210D01*
X167640Y-196850D02*
X225650Y-138840D01*
X167640Y-207645D02*
Y-196850D01*
X225650Y-138840D02*
Y-25210D01*
X238650Y-99585D02*
X240030Y-100965D01*
X238650Y-99585D02*
Y-25210D01*
X199142Y33338D02*
X199650Y32829D01*
X199142Y33338D02*
Y42158D01*
X240030Y99263D02*
Y99695D01*
X284480Y1905D02*
X290144Y-3759D01*
X238650Y41692D02*
X240138Y43180D01*
X238650Y32829D02*
Y41692D01*
X293370Y-6985D02*
Y-6553D01*
X290576Y-3759D02*
X293370Y-6553D01*
X290144Y-3759D02*
X290576D01*
X186650Y32258D02*
Y32829D01*
X186142Y31750D02*
X186650Y32258D01*
X186650Y-25210D02*
Y814D01*
X193150Y7314D01*
X186650Y-39965D02*
Y-25210D01*
Y-39965D02*
X189230Y-42545D01*
Y-58420D02*
Y-42545D01*
X245150Y1310D02*
Y17064D01*
X232150Y-11690D02*
X245150Y1310D01*
X232150Y-25210D02*
Y-11690D01*
X245150Y17064D02*
Y32829D01*
X206150Y-8936D02*
X232150Y17064D01*
Y32829D01*
X206150Y-25210D02*
Y-8936D01*
X219150Y-8936D02*
X245150Y17064D01*
X219150Y-25210D02*
Y-8936D01*
X193150Y-8936D02*
X219150Y17064D01*
X193150Y-25210D02*
Y-8936D01*
X-168680Y-33020D02*
X-158750D01*
X-168870Y-32829D02*
X-168680Y-33020D01*
X-181870Y-32829D02*
Y-15500D01*
X-168870Y-2500D02*
Y9444D01*
X-181870Y-15500D02*
X-168870Y-2500D01*
X-194870Y-32829D02*
Y-16556D01*
X-168870Y9444D01*
X-207870Y-16556D02*
X-181870Y9444D01*
X-220870Y-16556D02*
X-194870Y9444D01*
X-207870Y-32829D02*
Y-16556D01*
X-220870Y-32829D02*
Y-16556D01*
X302260Y60627D02*
X307823Y66190D01*
X302260Y47828D02*
Y60627D01*
Y47828D02*
X310718Y39370D01*
X298450D02*
X310718D01*
X311150D01*
X307823Y66190D02*
X311023D01*
X284480Y53340D02*
X298450Y39370D01*
X314384Y57844D02*
X331470Y74930D01*
X314384Y54252D02*
Y57844D01*
X311023Y53190D02*
X312085Y54252D01*
X314384D01*
X331470Y74930D02*
Y81610D01*
Y91110D02*
Y105090D01*
Y128590D02*
Y143510D01*
X327660Y39370D02*
X340360D01*
X-288365Y51995D02*
X-288290Y52070D01*
X-339090Y36830D02*
Y51587D01*
X-332257Y58420D02*
X-329057D01*
X-339090Y51587D02*
X-332257Y58420D01*
X-323633Y68693D02*
Y72757D01*
Y68693D02*
X-319860Y64920D01*
X-311023D01*
X-328676Y77800D02*
X-323633Y72757D01*
X-332740Y87300D02*
Y101280D01*
X96520Y-333807D02*
X103073Y-340360D01*
X109220D01*
X96520Y-333807D02*
Y-333375D01*
X109220Y-308860D02*
X123720D01*
X109220Y-340360D02*
Y-308860D01*
X167640Y-224587D02*
X174193Y-231140D01*
X181610D01*
X167640Y-224587D02*
Y-224155D01*
X181610Y-199640D02*
X196110D01*
X181610Y-231140D02*
Y-199640D01*
X195845Y-231405D02*
X196110Y-231140D01*
X240030Y-117907D02*
X246333Y-124210D01*
X252730D01*
X240030Y-117907D02*
Y-117475D01*
X252730Y-124210D02*
Y-92710D01*
X267230D01*
X266965Y-124475D02*
X267230Y-124210D01*
X299923Y16510D02*
X305820D01*
X306070Y16260D01*
X293370Y9957D02*
X299923Y16510D01*
X293370Y9525D02*
Y9957D01*
X306070Y16260D02*
X320570D01*
X306070Y-15240D02*
Y16260D01*
X320305Y-15505D02*
X320570Y-15240D01*
X246583Y123190D02*
X251710D01*
X252730Y124210D01*
X240030Y116205D02*
Y116637D01*
X246583Y123190D01*
X252730Y124210D02*
X267230D01*
X252730Y92710D02*
Y124210D01*
X176530Y232207D02*
X181156D01*
X181837Y232888D01*
X168910Y224587D02*
X176530Y232207D01*
X168910Y224155D02*
Y224587D01*
X181837Y232888D02*
X196337D01*
X181837Y201388D02*
Y232888D01*
X101553Y341380D02*
X109220D01*
X95250Y335077D02*
X101553Y341380D01*
X95250Y334645D02*
Y335077D01*
X109220Y309880D02*
Y341380D01*
X123720D01*
X-102823D02*
X-96520Y335077D01*
X-109960Y341380D02*
X-102823D01*
X-96520Y334645D02*
Y335077D01*
Y332105D02*
Y332537D01*
X-109960Y309880D02*
Y341380D01*
X-124460Y309880D02*
X-109960D01*
X-179857Y232207D02*
X-173990D01*
X-181080Y233430D02*
X-179857Y232207D01*
X-167640Y225425D02*
Y225857D01*
X-173990Y232207D02*
X-167640Y225857D01*
X-181080Y201930D02*
Y233430D01*
X-195580Y201930D02*
X-181080D01*
X-252247Y122987D02*
X-246380D01*
X-253470Y124210D02*
X-252247Y122987D01*
X-240030Y116205D02*
Y116637D01*
X-246380Y122987D02*
X-240030Y116637D01*
X-253470Y92710D02*
Y124210D01*
X-267970Y92710D02*
X-253470D01*
X-305587Y15037D02*
X-299720D01*
X-306810Y16260D02*
X-305587Y15037D01*
X-299720D02*
X-293370Y8687D01*
Y8255D02*
Y8687D01*
X-306810Y-15240D02*
Y16260D01*
X-321310Y-15240D02*
X-306810D01*
X-246583Y-123190D02*
X-240030Y-116637D01*
X-253470Y-123190D02*
X-246583D01*
X-240030Y-116637D02*
Y-116205D01*
X-253470Y-123190D02*
Y-91690D01*
X-267970Y-123190D02*
X-253470D01*
X-181080Y-229140D02*
Y-199640D01*
X-170434Y-224841D02*
X-167640Y-222047D01*
X-181080Y-229140D02*
X-176781Y-224841D01*
X-167640Y-222047D02*
Y-221615D01*
X-176781Y-224841D02*
X-170434D01*
X-181080Y-231140D02*
Y-229140D01*
X-195580Y-231140D02*
X-181080D01*
X-195580Y-199640D02*
Y-185420D01*
X-109960Y-340360D02*
Y-310860D01*
X-99561Y-321259D01*
X-99314D02*
X-96520Y-324053D01*
Y-324485D02*
Y-324053D01*
X-109960Y-310860D02*
Y-308860D01*
X-99561Y-321259D02*
X-99314D01*
X-124460Y-340360D02*
X-109960D01*
X-124460Y-308860D02*
Y-294640D01*
X-227878Y24130D02*
X-227370Y24638D01*
X-238760Y24130D02*
X-227878D01*
X-227370Y24638D02*
Y25210D01*
X-247650Y-47625D02*
Y-34290D01*
Y-47625D02*
X-247015Y-48260D01*
X-250190Y13309D02*
X-239369Y24130D01*
X-238760D01*
X-250190Y12700D02*
Y13309D01*
X-220980Y13970D02*
Y25099D01*
X-227370Y7580D02*
X-220980Y13970D01*
D11*
X-332740Y87300D02*
X-331800Y86360D01*
X-320390Y83820D02*
X-320040D01*
D12*
X-12065Y7500D02*
D03*
Y2500D02*
D03*
Y-2500D02*
D03*
Y-7500D02*
D03*
X12065D02*
D03*
Y-2500D02*
D03*
Y2500D02*
D03*
Y7500D02*
D03*
D13*
X-5000Y-9525D02*
D03*
X0D02*
D03*
X5000D02*
D03*
Y9525D02*
D03*
X0D02*
D03*
X-5000D02*
D03*
D14*
X344170Y87630D02*
D03*
Y83830D02*
D03*
X-320040Y83820D02*
D03*
Y80020D02*
D03*
D15*
X186650Y-25210D02*
D03*
X193150D02*
D03*
X199650D02*
D03*
X206150D02*
D03*
X212650D02*
D03*
X219150D02*
D03*
X225650D02*
D03*
X232150D02*
D03*
X238650D02*
D03*
X245150D02*
D03*
X245150Y32829D02*
D03*
X238650D02*
D03*
X232150D02*
D03*
X225650D02*
D03*
X219150D02*
D03*
X212650D02*
D03*
X206150D02*
D03*
X199650D02*
D03*
X193150D02*
D03*
X186650D02*
D03*
X-227370Y-32829D02*
D03*
X-220870D02*
D03*
X-214370D02*
D03*
X-207870D02*
D03*
X-201370D02*
D03*
X-194870D02*
D03*
X-188370D02*
D03*
X-181870D02*
D03*
X-175370D02*
D03*
X-168870D02*
D03*
X-168870Y25210D02*
D03*
X-175370D02*
D03*
X-181870D02*
D03*
X-188370D02*
D03*
X-194870D02*
D03*
X-201370D02*
D03*
X-207870D02*
D03*
X-214370D02*
D03*
X-220870D02*
D03*
X-227370D02*
D03*
D16*
X97790Y-237153D02*
D03*
D17*
X109982Y-227153D02*
D03*
Y-232153D02*
D03*
Y-237153D02*
D03*
Y-242153D02*
D03*
Y-247153D02*
D03*
X85598D02*
D03*
Y-242153D02*
D03*
Y-237153D02*
D03*
Y-232153D02*
D03*
Y-227153D02*
D03*
D18*
X-59450Y-343382D02*
D03*
X-49450D02*
D03*
X-39450D02*
D03*
X-29450D02*
D03*
X-17018D02*
D03*
X-71882D02*
D03*
D19*
X-57912Y229430D02*
D03*
Y224430D02*
D03*
Y219430D02*
D03*
Y214430D02*
D03*
Y209430D02*
D03*
Y204430D02*
D03*
Y199430D02*
D03*
Y194430D02*
D03*
Y189430D02*
D03*
Y184430D02*
D03*
Y179430D02*
D03*
Y174430D02*
D03*
X27432D02*
D03*
Y179430D02*
D03*
Y184430D02*
D03*
Y189430D02*
D03*
Y194430D02*
D03*
Y199430D02*
D03*
Y204430D02*
D03*
Y209430D02*
D03*
Y214430D02*
D03*
Y219430D02*
D03*
Y224430D02*
D03*
Y229430D02*
D03*
D20*
X-42740Y159258D02*
D03*
X-37740D02*
D03*
X-32740D02*
D03*
X-27740D02*
D03*
X-22740D02*
D03*
X-17740D02*
D03*
X-12740D02*
D03*
X-7740D02*
D03*
X-2740D02*
D03*
X2260D02*
D03*
X7260D02*
D03*
X12260D02*
D03*
Y244602D02*
D03*
X7260D02*
D03*
X2260D02*
D03*
X-2740D02*
D03*
X-7740D02*
D03*
X-12740D02*
D03*
X-17740D02*
D03*
X-22740D02*
D03*
X-27740D02*
D03*
X-32740D02*
D03*
X-37740D02*
D03*
X-42740D02*
D03*
D21*
X4445Y105410D02*
D03*
X-12065D02*
D03*
X-91440Y210820D02*
D03*
X-74930D02*
D03*
X327660Y39370D02*
D03*
X311150D02*
D03*
X-324485Y36830D02*
D03*
X-307975D02*
D03*
X51435Y309880D02*
D03*
X67945D02*
D03*
X16510Y-313690D02*
D03*
X33020D02*
D03*
X32895Y-299860D02*
D03*
X16385D02*
D03*
X102362Y-177800D02*
D03*
X85852D02*
D03*
X-85090Y-219710D02*
D03*
X-101600D02*
D03*
X-100965Y-205740D02*
D03*
X-84455D02*
D03*
X158115Y-115570D02*
D03*
X141605D02*
D03*
X122555Y-128270D02*
D03*
X106045D02*
D03*
X122555Y-115570D02*
D03*
X106045D02*
D03*
X158115Y-128270D02*
D03*
X141605D02*
D03*
X186690Y-41910D02*
D03*
X170180D02*
D03*
X-230505Y-49530D02*
D03*
X-247015D02*
D03*
D22*
X-38470Y-273050D02*
D03*
X-52970D02*
D03*
X-56780Y276860D02*
D03*
X-42280D02*
D03*
D23*
X331470Y105090D02*
D03*
Y128590D02*
D03*
X-332740Y101280D02*
D03*
Y124780D02*
D03*
D24*
X331470Y91110D02*
D03*
Y81610D02*
D03*
X-332740Y87300D02*
D03*
Y77800D02*
D03*
X-108204Y-238150D02*
D03*
Y-247650D02*
D03*
Y-257150D02*
D03*
X-82296D02*
D03*
Y-238150D02*
D03*
D25*
X329057Y59690D02*
D03*
X311023Y53190D02*
D03*
Y66190D02*
D03*
X-329057Y58420D02*
D03*
X-311023Y64920D02*
D03*
Y51920D02*
D03*
D26*
X18750Y86360D02*
D03*
X-18750D02*
D03*
D27*
X-74930Y224790D02*
D03*
X-90170D02*
D03*
X-74930Y187960D02*
D03*
X-90170D02*
D03*
X-41910Y261620D02*
D03*
X-57150D02*
D03*
X16510Y-285750D02*
D03*
X31750D02*
D03*
X31750Y-22570D02*
D03*
X16510D02*
D03*
D28*
X25400Y148590D02*
D03*
Y133350D02*
D03*
X44450Y242570D02*
D03*
Y227330D02*
D03*
X175260Y31750D02*
D03*
Y46990D02*
D03*
X-238760Y24130D02*
D03*
Y39370D02*
D03*
X-10160Y-24130D02*
D03*
Y-39370D02*
D03*
D29*
X100838Y-212090D02*
D03*
X84582D02*
D03*
X101600Y-193040D02*
D03*
X85344D02*
D03*
X102870Y-261620D02*
D03*
X86614D02*
D03*
X33528Y-39080D02*
D03*
X17272D02*
D03*
D30*
X53340Y-249936D02*
D03*
Y-227584D02*
D03*
D31*
X-124460Y-254900D02*
D03*
Y-240400D02*
D03*
D32*
X-15750Y-254290D02*
D03*
Y-239790D02*
D03*
X15750D02*
D03*
Y-254290D02*
D03*
D33*
X-39370Y-327025D02*
D03*
Y-310515D02*
D03*
X-50800Y-327025D02*
D03*
Y-310515D02*
D03*
X96520Y-316865D02*
D03*
Y-333375D02*
D03*
X167640Y-207645D02*
D03*
Y-224155D02*
D03*
X240030Y-100965D02*
D03*
Y-117475D02*
D03*
X293370Y-6985D02*
D03*
Y9525D02*
D03*
X240030Y99695D02*
D03*
Y116205D02*
D03*
X168910Y207645D02*
D03*
Y224155D02*
D03*
X95250Y318135D02*
D03*
Y334645D02*
D03*
X-96520Y-307975D02*
D03*
Y-324485D02*
D03*
X-167640Y-205105D02*
D03*
Y-221615D02*
D03*
X-240030Y-99695D02*
D03*
Y-116205D02*
D03*
X-293370Y-8255D02*
D03*
Y8255D02*
D03*
X-240030Y99695D02*
D03*
Y116205D02*
D03*
X-167640Y208915D02*
D03*
Y225425D02*
D03*
X-96520Y318135D02*
D03*
Y334645D02*
D03*
X124460Y-262255D02*
D03*
Y-245745D02*
D03*
D34*
X123720Y309880D02*
D03*
X109220D02*
D03*
Y341380D02*
D03*
X123720D02*
D03*
X196337Y201388D02*
D03*
X181837D02*
D03*
Y232888D02*
D03*
X196337D02*
D03*
X267230Y92710D02*
D03*
X252730D02*
D03*
Y124210D02*
D03*
X267230D02*
D03*
X320570Y-15240D02*
D03*
X306070D02*
D03*
Y16260D02*
D03*
X320570D02*
D03*
X267230Y-124210D02*
D03*
X252730D02*
D03*
Y-92710D02*
D03*
X267230D02*
D03*
X196110Y-231140D02*
D03*
X181610D02*
D03*
Y-199640D02*
D03*
X196110D02*
D03*
X123720Y-340360D02*
D03*
X109220D02*
D03*
Y-308860D02*
D03*
X123720D02*
D03*
X-124460D02*
D03*
X-109960D02*
D03*
Y-340360D02*
D03*
X-124460D02*
D03*
X-195580Y-199640D02*
D03*
X-181080D02*
D03*
Y-231140D02*
D03*
X-195580D02*
D03*
X-267970Y-91690D02*
D03*
X-253470D02*
D03*
Y-123190D02*
D03*
X-267970D02*
D03*
X-321310Y16260D02*
D03*
X-306810D02*
D03*
Y-15240D02*
D03*
X-321310D02*
D03*
X-267970Y124210D02*
D03*
X-253470D02*
D03*
Y92710D02*
D03*
X-267970D02*
D03*
X-195580Y233430D02*
D03*
X-181080D02*
D03*
Y201930D02*
D03*
X-195580D02*
D03*
X-124460Y341380D02*
D03*
X-109960D02*
D03*
Y309880D02*
D03*
X-124460D02*
D03*
D60*
X-91440Y135890D02*
D03*
X189230Y-58420D02*
D03*
X-230505Y-65405D02*
D03*
X207010Y-308610D02*
D03*
X181610D02*
D03*
X-288290Y52070D02*
D03*
X285750Y49530D02*
D03*
X-38100Y2540D02*
D03*
X38100Y27940D02*
D03*
X12700D02*
D03*
X-12700D02*
D03*
X-38100D02*
D03*
X110490Y22860D02*
D03*
X85090D02*
D03*
X74930Y-336550D02*
D03*
X-115570Y-393700D02*
D03*
Y-368300D02*
D03*
X-236220Y-304800D02*
D03*
X38100Y289560D02*
D03*
X63500D02*
D03*
D65*
X74930Y-335280D02*
X85090Y-325120D01*
Y-302057D02*
X124460Y-262687D01*
X85090Y-325120D02*
Y-302057D01*
X115570Y-212090D02*
X124460Y-203200D01*
X100838Y-212090D02*
X115570D01*
X114300Y-193040D02*
X124460Y-203200D01*
X101600Y-193040D02*
X114300D01*
X-124460Y-267970D02*
Y-256255D01*
X102362Y-177800D02*
Y-165100D01*
X84582Y-212090D02*
Y-195580D01*
X85344Y-193040D02*
Y-178308D01*
X74930Y-335280D02*
Y-274224D01*
X86614Y-262540D01*
X74455Y-375445D02*
Y-337025D01*
D66*
X71323Y-249987D02*
X79157Y-242153D01*
X53391Y-249987D02*
X71323D01*
X79157Y-242153D02*
X85598D01*
X76073Y-232200D02*
X85598D01*
X45720Y114300D02*
X53340Y121920D01*
X40749Y194201D02*
X53340Y181610D01*
Y121920D02*
Y181610D01*
X27661Y194201D02*
X40749D01*
X18750Y84950D02*
X36830Y66870D01*
X-19050Y86660D02*
Y98857D01*
X-12497Y105410D01*
X4445D02*
X17780D01*
X53340Y-227584D02*
X71458D01*
X76073Y-232200D01*
X-122210Y-257150D02*
X-108204D01*
X-124460Y-256255D02*
Y-254900D01*
X-122210Y-257150D01*
X85598Y-227200D02*
Y-213106D01*
X102277Y-271103D02*
Y-262213D01*
X98276Y-275104D02*
X102277Y-271103D01*
Y-262213D02*
X102870Y-261620D01*
X93980Y-275590D02*
X94466Y-275104D01*
X98276D01*
X74930Y-336550D02*
Y-335280D01*
X85598Y-260604D02*
Y-247200D01*
X86614Y-262540D02*
Y-261620D01*
X74455Y-337025D02*
X74930Y-336550D01*
X73980Y-375920D02*
X74455Y-375445D01*
D67*
X331470Y81610D02*
X331800Y81280D01*
X341270D02*
X343820Y83830D01*
X344170D01*
X331800Y81280D02*
X341270D01*
X331470Y91110D02*
X332410Y90170D01*
X341280D02*
X343820Y87630D01*
X332410Y90170D02*
X341280D01*
X343820Y87630D02*
X344170D01*
X-328676Y77800D02*
X-322610D01*
X-332740D02*
X-328676D01*
X-320390Y80020D02*
X-320040D01*
X-322610Y77800D02*
X-320390Y80020D01*
X-331800Y86360D02*
X-322930D01*
X-320390Y83820D01*
D68*
X-1250Y-344182D02*
D03*
X-87650Y-382182D02*
D03*
X-1250D02*
D03*
X-87650Y-344182D02*
D03*
D69*
X124460Y247650D02*
D03*
X111760D02*
D03*
X124460Y234950D02*
D03*
X111760D02*
D03*
X124460Y222250D02*
D03*
X111760D02*
D03*
X124460Y209550D02*
D03*
X111760D02*
D03*
X124460Y196850D02*
D03*
X111760D02*
D03*
X124460Y184150D02*
D03*
X111760D02*
D03*
X124460Y171450D02*
D03*
X111760D02*
D03*
D70*
X-185220Y-304800D02*
D03*
X-172720D02*
D03*
D71*
X114980Y-381000D02*
D03*
X32980D02*
D03*
D72*
X53980D02*
D03*
X73980D02*
D03*
X93980D02*
D03*
D73*
X296252Y210455D02*
D03*
X296252Y-203041D02*
D03*
X-296252Y210455D02*
D03*
X-296252Y-203041D02*
D03*
D74*
X185420Y144780D02*
D03*
X149860Y181610D02*
D03*
Y201930D02*
D03*
Y234950D02*
D03*
X135890Y-344170D02*
D03*
X124460Y-203200D02*
D03*
X36830Y66040D02*
D03*
X45720Y114300D02*
D03*
X17780Y105410D02*
D03*
X-23891Y64770D02*
D03*
X-57150Y124460D02*
D03*
X163830Y28575D02*
D03*
X-73660Y92710D02*
D03*
X-49530Y81280D02*
D03*
X-288290Y151130D02*
D03*
X-69850Y-220980D02*
D03*
X219710Y245110D02*
D03*
X175260Y62230D02*
D03*
X3810Y-22860D02*
D03*
X40640Y130810D02*
D03*
X138968Y-231733D02*
D03*
X204470Y50800D02*
D03*
X256540Y33020D02*
D03*
X-209550Y44450D02*
D03*
X38100Y7620D02*
D03*
X82550Y309880D02*
D03*
X-80010Y157574D02*
D03*
X36830Y163830D02*
D03*
X-332740Y143510D02*
D03*
X-339090Y36830D02*
D03*
X165100Y-26670D02*
D03*
X-293370Y-22860D02*
D03*
X-45720Y-297180D02*
D03*
X-27940Y-284480D02*
D03*
X195580Y-247650D02*
D03*
X266700Y-142240D02*
D03*
X320040Y-31750D02*
D03*
X196850Y184150D02*
D03*
X124460Y294640D02*
D03*
X-267970Y-76200D02*
D03*
X-335280Y19050D02*
D03*
X-267970Y140970D02*
D03*
X-195580Y250190D02*
D03*
X-140970Y341630D02*
D03*
X46990Y-285750D02*
D03*
X-105410Y224790D02*
D03*
Y210820D02*
D03*
X-102870Y194310D02*
D03*
X-74930Y238760D02*
D03*
X-88900Y256540D02*
D03*
X-71120Y261620D02*
D03*
X-90170Y173355D02*
D03*
X-53340Y146050D02*
D03*
X40640Y148590D02*
D03*
X58420Y227330D02*
D03*
Y242570D02*
D03*
X44450Y213360D02*
D03*
X85090Y241300D02*
D03*
X16510Y294640D02*
D03*
X-81280Y306070D02*
D03*
X-41910Y292100D02*
D03*
X-68580Y314960D02*
D03*
X7620Y306070D02*
D03*
X-1270Y314960D02*
D03*
X-8890Y325120D02*
D03*
X-238760Y53340D02*
D03*
X16510Y-54610D02*
D03*
X33020D02*
D03*
X281940Y88900D02*
D03*
X-124460Y-227330D02*
D03*
X102362Y-165100D02*
D03*
X93980Y-275590D02*
D03*
X-124460Y-267970D02*
D03*
X-201930Y-100330D02*
D03*
X-175260D02*
D03*
X-240030Y-85090D02*
D03*
X-175260D02*
D03*
X-188347Y83820D02*
D03*
X-172729Y41307D02*
D03*
X-240030Y83820D02*
D03*
X-228600Y66040D02*
D03*
X-114300Y285750D02*
D03*
X76200Y205740D02*
D03*
X-17780Y283210D02*
D03*
X17780Y264160D02*
D03*
X27940Y256540D02*
D03*
X-26670Y332740D02*
D03*
X-38100Y341630D02*
D03*
X-22860Y-23150D02*
D03*
X234950Y54610D02*
D03*
X256540Y-25400D02*
D03*
X-158750Y-33020D02*
D03*
X331470Y143510D02*
D03*
X340360Y39370D02*
D03*
X-195580Y-185420D02*
D03*
X-124460Y-294640D02*
D03*
X-250190Y12700D02*
D03*
X-247650Y-34290D02*
D03*
M02*
