G04*
G04 #@! TF.GenerationSoftware,Altium Limited,Altium Designer,24.6.1 (21)*
G04*
G04 Layer_Color=8388736*
%FSLAX44Y44*%
%MOMM*%
G71*
G04*
G04 #@! TF.SameCoordinates,B480DAFC-4D43-492A-8D76-F876705FF25E*
G04*
G04*
G04 #@! TF.FilePolarity,Negative*
G04*
G01*
G75*
%ADD15R,0.3000X0.2300*%
%ADD36R,0.5842X0.3556*%
%ADD37R,0.3556X0.5842*%
%ADD38R,0.5080X1.4605*%
%ADD39R,1.3462X2.1590*%
%ADD40R,0.8636X0.3937*%
%ADD41R,1.0160X1.3970*%
%ADD42R,1.6764X0.5029*%
%ADD43R,0.5029X1.6764*%
%ADD44R,1.1024X1.0160*%
%ADD45R,1.2032X1.1532*%
%ADD46R,1.5032X1.4224*%
%ADD47R,1.5240X0.7112*%
%ADD48R,1.3096X0.6696*%
%ADD49R,1.9532X2.2352*%
%ADD50R,1.0414X1.1632*%
%ADD51R,1.1632X1.0414*%
%ADD52R,1.2192X1.4032*%
%ADD53R,2.4130X1.3716*%
%ADD54R,1.1532X1.2032*%
%ADD55R,1.3532X0.9532*%
%ADD56R,1.0160X1.1024*%
%ADD57R,0.9532X1.3532*%
%ADD58C,1.4732*%
%ADD59O,1.3532X1.9532*%
%ADD60C,1.3716*%
%ADD61C,1.2700*%
%ADD62O,1.2192X2.0320*%
%ADD63C,1.5494*%
%ADD64C,3.7032*%
%ADD65C,0.8382*%
D15*
X344170Y87630D02*
D03*
Y83830D02*
D03*
X-320040Y83820D02*
D03*
Y80020D02*
D03*
D36*
X-12065Y7500D02*
D03*
Y2500D02*
D03*
Y-2500D02*
D03*
Y-7500D02*
D03*
X12065D02*
D03*
Y-2500D02*
D03*
Y2500D02*
D03*
Y7500D02*
D03*
D37*
X-5000Y-9525D02*
D03*
X0D02*
D03*
X5000D02*
D03*
Y9525D02*
D03*
X0D02*
D03*
X-5000D02*
D03*
D38*
X186650Y-25210D02*
D03*
X193150D02*
D03*
X199650D02*
D03*
X206150D02*
D03*
X212650D02*
D03*
X219150D02*
D03*
X225650D02*
D03*
X232150D02*
D03*
X238650D02*
D03*
X245150D02*
D03*
X245150Y32829D02*
D03*
X238650D02*
D03*
X232150D02*
D03*
X225650D02*
D03*
X219150D02*
D03*
X212650D02*
D03*
X206150D02*
D03*
X199650D02*
D03*
X193150D02*
D03*
X186650D02*
D03*
X-227370Y-32829D02*
D03*
X-220870D02*
D03*
X-214370D02*
D03*
X-207870D02*
D03*
X-201370D02*
D03*
X-194870D02*
D03*
X-188370D02*
D03*
X-181870D02*
D03*
X-175370D02*
D03*
X-168870D02*
D03*
X-168870Y25210D02*
D03*
X-175370D02*
D03*
X-181870D02*
D03*
X-188370D02*
D03*
X-194870D02*
D03*
X-201370D02*
D03*
X-207870D02*
D03*
X-214370D02*
D03*
X-220870D02*
D03*
X-227370D02*
D03*
D39*
X97790Y-237153D02*
D03*
D40*
X109982Y-227153D02*
D03*
Y-232153D02*
D03*
Y-237153D02*
D03*
Y-242153D02*
D03*
Y-247153D02*
D03*
X85598D02*
D03*
Y-242153D02*
D03*
Y-237153D02*
D03*
Y-232153D02*
D03*
Y-227153D02*
D03*
D41*
X-59450Y-343382D02*
D03*
X-49450D02*
D03*
X-39450D02*
D03*
X-29450D02*
D03*
X-17018D02*
D03*
X-71882D02*
D03*
D42*
X-57912Y229430D02*
D03*
Y224430D02*
D03*
Y219430D02*
D03*
Y214430D02*
D03*
Y209430D02*
D03*
Y204430D02*
D03*
Y199430D02*
D03*
Y194430D02*
D03*
Y189430D02*
D03*
Y184430D02*
D03*
Y179430D02*
D03*
Y174430D02*
D03*
X27432D02*
D03*
Y179430D02*
D03*
Y184430D02*
D03*
Y189430D02*
D03*
Y194430D02*
D03*
Y199430D02*
D03*
Y204430D02*
D03*
Y209430D02*
D03*
Y214430D02*
D03*
Y219430D02*
D03*
Y224430D02*
D03*
Y229430D02*
D03*
D43*
X-42740Y159258D02*
D03*
X-37740D02*
D03*
X-32740D02*
D03*
X-27740D02*
D03*
X-22740D02*
D03*
X-17740D02*
D03*
X-12740D02*
D03*
X-7740D02*
D03*
X-2740D02*
D03*
X2260D02*
D03*
X7260D02*
D03*
X12260D02*
D03*
Y244602D02*
D03*
X7260D02*
D03*
X2260D02*
D03*
X-2740D02*
D03*
X-7740D02*
D03*
X-12740D02*
D03*
X-17740D02*
D03*
X-22740D02*
D03*
X-27740D02*
D03*
X-32740D02*
D03*
X-37740D02*
D03*
X-42740D02*
D03*
D44*
X4445Y105410D02*
D03*
X-12065D02*
D03*
X-91440Y210820D02*
D03*
X-74930D02*
D03*
X327660Y39370D02*
D03*
X311150D02*
D03*
X-324485Y36830D02*
D03*
X-307975D02*
D03*
X51435Y309880D02*
D03*
X67945D02*
D03*
X16510Y-313690D02*
D03*
X33020D02*
D03*
X32895Y-299860D02*
D03*
X16385D02*
D03*
X102362Y-177800D02*
D03*
X85852D02*
D03*
X-85090Y-219710D02*
D03*
X-101600D02*
D03*
X-100965Y-205740D02*
D03*
X-84455D02*
D03*
X158115Y-115570D02*
D03*
X141605D02*
D03*
X122555Y-128270D02*
D03*
X106045D02*
D03*
X122555Y-115570D02*
D03*
X106045D02*
D03*
X158115Y-128270D02*
D03*
X141605D02*
D03*
X186690Y-41910D02*
D03*
X170180D02*
D03*
X-230505Y-49530D02*
D03*
X-247015D02*
D03*
D45*
X-38470Y-273050D02*
D03*
X-52970D02*
D03*
X-56780Y276860D02*
D03*
X-42280D02*
D03*
D46*
X331470Y105090D02*
D03*
Y128590D02*
D03*
X-332740Y101280D02*
D03*
Y124780D02*
D03*
D47*
X331470Y91110D02*
D03*
Y81610D02*
D03*
X-332740Y87300D02*
D03*
Y77800D02*
D03*
X-108204Y-238150D02*
D03*
Y-247650D02*
D03*
Y-257150D02*
D03*
X-82296D02*
D03*
Y-238150D02*
D03*
D48*
X329057Y59690D02*
D03*
X311023Y53190D02*
D03*
Y66190D02*
D03*
X-329057Y58420D02*
D03*
X-311023Y64920D02*
D03*
Y51920D02*
D03*
D49*
X18750Y86360D02*
D03*
X-18750D02*
D03*
D50*
X-74930Y224790D02*
D03*
X-90170D02*
D03*
X-74930Y187960D02*
D03*
X-90170D02*
D03*
X-41910Y261620D02*
D03*
X-57150D02*
D03*
X16510Y-285750D02*
D03*
X31750D02*
D03*
X31750Y-22570D02*
D03*
X16510D02*
D03*
D51*
X25400Y148590D02*
D03*
Y133350D02*
D03*
X44450Y242570D02*
D03*
Y227330D02*
D03*
X175260Y31750D02*
D03*
Y46990D02*
D03*
X-238760Y24130D02*
D03*
Y39370D02*
D03*
X-10160Y-24130D02*
D03*
Y-39370D02*
D03*
D52*
X100838Y-212090D02*
D03*
X84582D02*
D03*
X101600Y-193040D02*
D03*
X85344D02*
D03*
X102870Y-261620D02*
D03*
X86614D02*
D03*
X33528Y-39080D02*
D03*
X17272D02*
D03*
D53*
X53340Y-249936D02*
D03*
Y-227584D02*
D03*
D54*
X-124460Y-254900D02*
D03*
Y-240400D02*
D03*
D55*
X-15750Y-254290D02*
D03*
Y-239790D02*
D03*
X15750D02*
D03*
Y-254290D02*
D03*
D56*
X-39370Y-327025D02*
D03*
Y-310515D02*
D03*
X-50800Y-327025D02*
D03*
Y-310515D02*
D03*
X96520Y-316865D02*
D03*
Y-333375D02*
D03*
X167640Y-207645D02*
D03*
Y-224155D02*
D03*
X240030Y-100965D02*
D03*
Y-117475D02*
D03*
X293370Y-6985D02*
D03*
Y9525D02*
D03*
X240030Y99695D02*
D03*
Y116205D02*
D03*
X168910Y207645D02*
D03*
Y224155D02*
D03*
X95250Y318135D02*
D03*
Y334645D02*
D03*
X-96520Y-307975D02*
D03*
Y-324485D02*
D03*
X-167640Y-205105D02*
D03*
Y-221615D02*
D03*
X-240030Y-99695D02*
D03*
Y-116205D02*
D03*
X-293370Y-8255D02*
D03*
Y8255D02*
D03*
X-240030Y99695D02*
D03*
Y116205D02*
D03*
X-167640Y208915D02*
D03*
Y225425D02*
D03*
X-96520Y318135D02*
D03*
Y334645D02*
D03*
X124460Y-262255D02*
D03*
Y-245745D02*
D03*
D57*
X123720Y309880D02*
D03*
X109220D02*
D03*
Y341380D02*
D03*
X123720D02*
D03*
X196337Y201388D02*
D03*
X181837D02*
D03*
Y232888D02*
D03*
X196337D02*
D03*
X267230Y92710D02*
D03*
X252730D02*
D03*
Y124210D02*
D03*
X267230D02*
D03*
X320570Y-15240D02*
D03*
X306070D02*
D03*
Y16260D02*
D03*
X320570D02*
D03*
X267230Y-124210D02*
D03*
X252730D02*
D03*
Y-92710D02*
D03*
X267230D02*
D03*
X196110Y-231140D02*
D03*
X181610D02*
D03*
Y-199640D02*
D03*
X196110D02*
D03*
X123720Y-340360D02*
D03*
X109220D02*
D03*
Y-308860D02*
D03*
X123720D02*
D03*
X-124460D02*
D03*
X-109960D02*
D03*
Y-340360D02*
D03*
X-124460D02*
D03*
X-195580Y-199640D02*
D03*
X-181080D02*
D03*
Y-231140D02*
D03*
X-195580D02*
D03*
X-267970Y-91690D02*
D03*
X-253470D02*
D03*
Y-123190D02*
D03*
X-267970D02*
D03*
X-321310Y16260D02*
D03*
X-306810D02*
D03*
Y-15240D02*
D03*
X-321310D02*
D03*
X-267970Y124210D02*
D03*
X-253470D02*
D03*
Y92710D02*
D03*
X-267970D02*
D03*
X-195580Y233430D02*
D03*
X-181080D02*
D03*
Y201930D02*
D03*
X-195580D02*
D03*
X-124460Y341380D02*
D03*
X-109960D02*
D03*
Y309880D02*
D03*
X-124460D02*
D03*
D58*
X-91440Y135890D02*
D03*
X189230Y-58420D02*
D03*
X-230505Y-65405D02*
D03*
X207010Y-308610D02*
D03*
X181610D02*
D03*
X-288290Y52070D02*
D03*
X285750Y49530D02*
D03*
X-38100Y2540D02*
D03*
X38100Y27940D02*
D03*
X12700D02*
D03*
X-12700D02*
D03*
X-38100D02*
D03*
X110490Y22860D02*
D03*
X85090D02*
D03*
X74930Y-336550D02*
D03*
X-115570Y-393700D02*
D03*
Y-368300D02*
D03*
X-236220Y-304800D02*
D03*
X38100Y289560D02*
D03*
X63500D02*
D03*
D59*
X-1250Y-344182D02*
D03*
X-87650Y-382182D02*
D03*
X-1250D02*
D03*
X-87650Y-344182D02*
D03*
D60*
X124460Y247650D02*
D03*
X111760D02*
D03*
X124460Y234950D02*
D03*
X111760D02*
D03*
X124460Y222250D02*
D03*
X111760D02*
D03*
X124460Y209550D02*
D03*
X111760D02*
D03*
X124460Y196850D02*
D03*
X111760D02*
D03*
X124460Y184150D02*
D03*
X111760D02*
D03*
X124460Y171450D02*
D03*
X111760D02*
D03*
D61*
X-185220Y-304800D02*
D03*
X-172720D02*
D03*
D62*
X114980Y-381000D02*
D03*
X32980D02*
D03*
D63*
X53980D02*
D03*
X73980D02*
D03*
X93980D02*
D03*
D64*
X296252Y210455D02*
D03*
X296252Y-203041D02*
D03*
X-296252Y210455D02*
D03*
X-296252Y-203041D02*
D03*
D65*
X149860Y201930D02*
D03*
X185420Y144780D02*
D03*
X149860Y181610D02*
D03*
Y234950D02*
D03*
X135890Y-344170D02*
D03*
X124460Y-203200D02*
D03*
X36830Y66040D02*
D03*
X45720Y114300D02*
D03*
X17780Y105410D02*
D03*
X-23891Y64770D02*
D03*
X-57150Y124460D02*
D03*
X163830Y28575D02*
D03*
X-73660Y92710D02*
D03*
X-49530Y81280D02*
D03*
X-288290Y151130D02*
D03*
X-69850Y-220980D02*
D03*
X219710Y245110D02*
D03*
X175260Y62230D02*
D03*
X3810Y-22860D02*
D03*
X40640Y130810D02*
D03*
X138968Y-231733D02*
D03*
X204470Y50800D02*
D03*
X256540Y33020D02*
D03*
X-209550Y44450D02*
D03*
X38100Y7620D02*
D03*
X82550Y309880D02*
D03*
X-80010Y157574D02*
D03*
X36830Y163830D02*
D03*
X-332740Y143510D02*
D03*
X-339090Y36830D02*
D03*
X165100Y-26670D02*
D03*
X-293370Y-22860D02*
D03*
X-45720Y-297180D02*
D03*
X-27940Y-284480D02*
D03*
X195580Y-247650D02*
D03*
X266700Y-142240D02*
D03*
X320040Y-31750D02*
D03*
X196850Y184150D02*
D03*
X124460Y294640D02*
D03*
X-267970Y-76200D02*
D03*
X-335280Y19050D02*
D03*
X-267970Y140970D02*
D03*
X-195580Y250190D02*
D03*
X-140970Y341630D02*
D03*
X46990Y-285750D02*
D03*
X-105410Y224790D02*
D03*
Y210820D02*
D03*
X-102870Y194310D02*
D03*
X-74930Y238760D02*
D03*
X-88900Y256540D02*
D03*
X-71120Y261620D02*
D03*
X-90170Y173355D02*
D03*
X-53340Y146050D02*
D03*
X40640Y148590D02*
D03*
X58420Y227330D02*
D03*
Y242570D02*
D03*
X44450Y213360D02*
D03*
X85090Y241300D02*
D03*
X16510Y294640D02*
D03*
X-81280Y306070D02*
D03*
X-41910Y292100D02*
D03*
X-68580Y314960D02*
D03*
X7620Y306070D02*
D03*
X-1270Y314960D02*
D03*
X-8890Y325120D02*
D03*
X-238760Y53340D02*
D03*
X16510Y-54610D02*
D03*
X33020D02*
D03*
X281940Y88900D02*
D03*
X-124460Y-227330D02*
D03*
X102362Y-165100D02*
D03*
X93980Y-275590D02*
D03*
X-124460Y-267970D02*
D03*
X-201930Y-100330D02*
D03*
X-175260D02*
D03*
X-240030Y-85090D02*
D03*
X-175260D02*
D03*
X-188347Y83820D02*
D03*
X-172729Y41307D02*
D03*
X-240030Y83820D02*
D03*
X-228600Y66040D02*
D03*
X-114300Y285750D02*
D03*
X76200Y205740D02*
D03*
X-17780Y283210D02*
D03*
X17780Y264160D02*
D03*
X27940Y256540D02*
D03*
X-26670Y332740D02*
D03*
X-38100Y341630D02*
D03*
X-22860Y-23150D02*
D03*
X234950Y54610D02*
D03*
X256540Y-25400D02*
D03*
X-158750Y-33020D02*
D03*
X331470Y143510D02*
D03*
X340360Y39370D02*
D03*
X-195580Y-185420D02*
D03*
X-124460Y-294640D02*
D03*
X-250190Y12700D02*
D03*
X-247650Y-34290D02*
D03*
M02*
